<?xml version="1.0" encoding="utf-8"?>
<!-- Generator: Adobe Illustrator 27.8.0, SVG Export Plug-In . SVG Version: 6.00 Build 0)  -->
<svg version="1.1" id="Camada_1" xmlns="http://www.w3.org/2000/svg" xmlns:xlink="http://www.w3.org/1999/xlink" x="0px" y="0px"
	 viewBox="0 0 1080 520" style="enable-background:new 0 0 1080 520;" xml:space="preserve">
<style type="text/css">
	.st0{fill:#150035;}
	.st1{fill-rule:evenodd;clip-rule:evenodd;fill:#FFEECC;}
	.st2{fill:#FFFFFF;}
	.st3{fill-rule:evenodd;clip-rule:evenodd;fill:#FFFFFF;}
	.st4{fill-rule:evenodd;clip-rule:evenodd;fill:#FAD129;}
	.st5{fill-rule:evenodd;clip-rule:evenodd;fill:#E82982;}
	.st6{fill-rule:evenodd;clip-rule:evenodd;fill:#1AC2EA;}
</style>
<path class="st0" d="M-829.4,267.3v17.5c0,12.5-10.1,22.5-22.5,22.5h-19.9H-920h-42.4v-40.1v-22v-26.7v-38.4v-27.1V140V97.4h42.4
	h48.1h19.9c12.4,0,22.5,10,22.5,22.5V140v13.1v27.1v38.4v26.7V267.3z M-871.9,267.3v-22v-26.7v-38.4v-27.1V140H-920v13.1v27.1v38.4
	v26.7v22H-871.9z M-772.2,97.4V140h-42.4V97.4H-772.2z M-772.2,267.2v40.2h-42.4v-40.2V248v-29.4v-38.4v-21h42.4v21v38.4V248V267.2z
	 M-624.7,267.2v21c0,10.6-8.6,19.2-19.2,19.2H-667h-48.1v-40.2h48.1V248h-48.1h-23.2c-10.6,0-19.2-8.6-19.2-19.2v-10.2v-38.4v-21
	V140v-23.4c0-10.6,8.6-19.2,19.2-19.2h23.2h48.1h23.1c10.6,0,19.2,8.6,19.2,19.2V140v19.2v21v38.4V248V267.2L-624.7,267.2z
	 M-667,218.6v-38.4v-21v-19.2h-48.1v19.2v21v38.4H-667z M-567.3,97.4v42.6h-42.4V97.4H-567.3z M-567.3,267.2v40.2h-42.4v-40.2V248
	v-29.4v-38.4v-21h42.4v21v38.4V248V267.2z M-419.8,267.2v40.2h-25.1h-65.5h-23.1c-10.6,0-19.2-8.6-19.2-19.2v-21V248v-29.4v-38.4
	v-21v-19.2V97.4h42.3v42.6h65.5v19.2v21h-65.5v38.4V248v19.2h65.5L-419.8,267.2L-419.8,267.2z M-404.8,186.2v-10.3
	c0-10.5,8.6-19.2,19.2-19.2h23.2h48.1v-19.2h-48.1V97.4h48.1h23.1c10.6,0,19.2,8.6,19.2,19.2v20.9v19.2v29.5v38.4v20.9v19.3v42.6
	h-42.3h-48.1h-23.2c-10.6,0-19.2-8.6-19.2-19.2v-23.4v-19.3v-20.9L-404.8,186.2L-404.8,186.2z M-362.4,186.2v38.4v20.9v19.3h48.1
	v-19.3v-20.9v-38.4H-362.4z M-124.2,267.3v40.1h-42.4h-48.1h-32.1c-5.7,0-10.2-4.5-10.2-10.2v-29.8v-22v-26.7v-38.4v-27.1v-13.1
	V97.4h42.3v42.6v13.1v27.1v38.4v26.7v22h48.1H-124.2z"/>
<path class="st1" d="M-479.3,312.1c0.2-1.8,0.4-3.6,0.6-5.4c0.4-4.9,3.7-8.7,8.6-9.6c3-0.5,6,0,8.9,0.9c2.7,0.9,5.2,2.2,7.6,3.6
	c2.5,1.4,4.9,3.1,7.1,4.9c2.2,1.8,4.3,3.8,6,6.1c2.1,2.8,3.4,6.1,3,9.6c0,0.1,0,0.2,0,0.3c-0.3,2.2-1.2,4.8-1.8,7
	c-1.2,3.9-2.4,7.8-3.7,11.7c-1.8,5.3-3.6,10.5-5.4,15.8c-2.1,6.1-4.3,12.1-6.4,18.2c-2.2,6.4-4.5,12.8-6.8,19.2
	c-2.2,6.2-4.4,12.3-6.6,18.5c-0.7,2-1.4,4-2.1,6c2.5-3.3,5-6.6,7.4-10c2.6-3.6,5.2-7.2,7.7-10.9c2.2-3.2,4.4-6.4,6.6-9.7
	c0.9-1.3,1.9-2.4,3.1-3.3c1-2.2,2.1-4.4,3.3-6.5c2.9-4.8,6.4-9.2,10.4-13c3.9-3.6,8.2-6.7,13-9c4.6-2.2,9.6-3.6,14.8-3.6
	c5.4,0,10.5,1.4,15,4.5c4,2.7,7.2,6.1,9.8,10.2c2.5,3.9,4.3,8.2,5.4,12.8c1,4.3,1.5,8.8,1,13.2c-0.3,3.8-1.1,7.6-2.2,11.3
	c2.5-2.4,4.8-5,7-7.6c2.7-3.2,5.4-6.6,7.8-10.1c0.4-0.6,0.7-1.1,1.2-1.6c0.7-1.7,1.3-3.5,2-5.2c1.9-5.2,3.8-10.5,5.6-15.8
	c-1.2,0.1-2.4,0.1-3.7,0.1c-5.4,0-10.3-1.7-14.2-5.5c-2.9-2.8-5.2-6.1-6.7-9.8c-1.3-3.3-2.1-6.8-2-10.3c0.2-5.8,3.5-10.9,9.7-10.9
	c2.3,0,4.3,0.8,6.2,2.1c0.8,0.5,1.8,1,2.7,1.5c1.3,0.6,2.8,1,4.2,1.4c2.3,0.5,4.8,0.6,7.1,0.6c2,0,4,0,6-0.1c1-3.9,1.9-7.8,2.7-11.8
	c1-5.1,1.9-10.3,2.3-15.5c0.5-4.9,3.7-8.6,8.6-9.5c2.9-0.5,5.9-0.1,8.7,0.8c2.7,0.9,5.4,2.1,7.8,3.5c2.5,1.4,4.9,3.1,7.1,4.9
	c2.2,1.8,4.3,3.8,6,6.1c2.1,2.8,3.4,6.1,3,9.6c0,0.1,0,0.2,0,0.3c-0.3,2.3-1.1,4.9-1.8,7.1c-0.1,0.2-0.1,0.4-0.2,0.6
	c2.7-0.1,5.3-0.2,8-0.2c1.2,0,2.4,0,3.7,0.1c0.6-2.6,1.2-5.3,1.8-8c1-5.1,1.9-10.3,2.3-15.5c0.5-4.9,3.7-8.6,8.6-9.5
	c2.9-0.5,5.9-0.1,8.7,0.8c2.7,0.9,5.4,2.1,7.8,3.5c2.5,1.4,4.9,3.1,7.1,4.9c2.2,1.8,4.3,3.8,6,6.1c2.1,2.8,3.4,6.1,3,9.6
	c0,0.1,0,0.2,0,0.3c-0.3,2.3-1.1,4.9-1.8,7.1c-0.1,0.2-0.1,0.4-0.2,0.6c2.7-0.1,5.3-0.2,8-0.2c5.2,0,10.7,0.7,15.2,3.3
	c3.3,1.9,6.4,4.4,8.3,7.8c1.8,3.1,2.7,6.6,2.2,10.1c-0.3,1.6-0.8,3.2-1.6,4.5c0.5,0,1.1-0.1,1.6-0.1c4.9,0,9.5,1.3,13.8,3.8
	c3.9,2.3,7.4,5.2,10.3,8.7c2.7,3.3,4.9,7,6.5,10.9c1.5,3.8,2.5,7.8,2.3,11.9c0,0.1,0,0.2,0,0.4c-0.2,1.6-0.5,3.1-1,4.7c0,0,0,0,0,0
	c1.8-2.1,3.6-4.2,5.4-6.3c0.2-0.3,0.3-0.5,0.5-0.7c0.9-1.1,1.7-2.4,2.5-3.6c-0.2-0.2-0.4-0.3-0.6-0.5c-2.7-2.2-5-4.9-7-7.8
	c-2-3.1-3.5-6.5-4.5-10.1c-1.1-4.2-1.2-8.6-0.9-13c0.5-6.1,2.4-11.7,5.7-16.8c2.9-4.5,6.4-8.6,10.5-12.1c3.8-3.3,7.9-6.1,12.4-8.2
	c3.8-1.7,8.1-3.2,12.3-3.2c5.7,0,10.2,3,13.3,7.7c3.5,5.4,3.5,12.8,3,19c-0.6,6.5-2.3,12.8-4.6,18.9c-1.5,3.9-3.2,7.8-5,11.5
	c0.4,0.3,0.9,0.5,1.3,0.8c2.9,1.6,5.8,3.4,8.4,5.5c2.9,2.2,5.4,4.8,7.4,7.9c2.5,3.9,3.3,8.5,2.9,13.1c-0.2,3.1-1.5,6.8-2.5,9.8
	c-1,3-2,5.9-3.1,8.9c1.2-1.9,2.4-3.7,3.6-5.6c2.6-4.1,5.2-8.1,7.8-12.2c2.2-3.5,4.5-6.9,6.8-10.4c2.9-4.4,7.9-7,12.9-4
	c2.5,1.5,4.1,4,4.9,6.8c0.5,2,0.7,4,0.6,6c-0.1,2.3-0.5,4.5-1.8,6.4c-1.7,2.5-3.2,5.2-4.6,7.8c-2.4,4.2-4.9,8.3-7.4,12.3
	c-2.9,4.6-5.9,9.2-9.1,13.6c-3.2,4.6-6.5,9-10.1,13.2c-3.3,3.9-6.9,7.6-10.8,10.7c-3.7,2.9-7.9,5.3-12.6,6c-0.8,0.2-1.6,0.3-2.4,0.3
	c-2,0-4.3-0.3-6.3-0.6c-3.3-0.5-6.4-1.5-9.4-2.7c-3.5-1.5-6.6-3.6-9.2-6.4c-3.6-3.8-4.9-8.7-4.5-13.8c0.4-4.9,2-9.8,3.9-14.2
	c2-4.7,4.1-9.3,6.4-13.9c1.6-3.3,3.2-6.6,4.8-9.9c0,0,0,0,0,0c-1,1.3-2,2.6-3,3.9c-3.2,4.2-6.6,8.3-10,12.3
	c-4,4.7-8.3,9.2-12.7,13.6c-4.6,4.6-9.4,8.9-14.4,12.9c-4.8,3.8-10,7.2-15.5,9.9c-5.2,2.6-10.9,4.3-16.7,4.3c-4.6,0-9-1.3-13.1-3.3
	c-4-2-7.7-4.4-11-7.4c-3.2-2.8-6-6-8.3-9.6c-0.2-0.3-0.4-0.6-0.5-0.9c-1.8,2-3.6,3.9-5.5,5.8c-3.5,3.5-7.1,6.7-11.1,9.6
	c-3.8,2.7-8.1,4.9-12.8,5.4c-0.7,0.2-1.4,0.2-2.2,0.2c-2,0-4.3-0.3-6.3-0.6c-3.3-0.5-6.4-1.5-9.4-2.7c-3.5-1.5-6.6-3.6-9.2-6.4
	c-1.6-1.7-2.8-3.7-3.5-5.8c-0.1,0.1-0.2,0.2-0.4,0.4c-3.5,3.5-7.1,6.7-11.1,9.6c-3.8,2.7-8.1,4.9-12.8,5.4c-0.7,0.2-1.4,0.2-2.2,0.2
	c-2,0-4.3-0.3-6.3-0.6c-3.3-0.5-6.4-1.5-9.4-2.7c-3.5-1.5-6.6-3.6-9.2-6.4c-3.6-3.8-4.9-8.7-4.5-13.8c0-0.1,0-0.2,0-0.3
	c0.1-0.6,0.2-1.2,0.3-1.8c-1,0.7-2,1.3-3,1.9c-5.2,3.3-10.9,5.6-16.9,6.7c-4,4.6-8.5,8.7-13.6,12.2c-5.9,4.1-12.6,6.5-19.8,6.5
	c-5.5,0-10.8-1.2-15.6-4c-4.1-2.4-7.8-5.5-10.7-9.2c-1.7-2.1-3.2-4.4-4.4-6.9c-1.5,1.6-3.1,3.2-4.7,4.7c-3.9,3.7-8.2,7-12.9,9.6
	c-4.8,2.7-10,4.3-15.6,4.3c-2.4,0-4.9-0.7-7.1-1.5c-3.1-1.1-5.8-2.9-8.1-5.1c-2.5-2.4-4.4-5.3-5.9-8.5c-1.9-4.1-2.3-8.7-1.9-13.2
	c0.3-4.1,2-9.1,3.4-12.9c2.2-6,4.4-12.1,6.7-18.1c2.9-7.6,5.7-15.2,8.6-22.8c1.3-3.4,2.5-6.8,3.7-10.3c-4.2,3.9-8.8,7.3-13.7,10.3
	c-7.9,4.9-16.6,8.4-25.5,11c-8.5,2.5-17.3,3.7-26.2,4.1c-1.7,5.1-3.5,10.2-5.4,15.2c-2.2,6.1-4.4,12.2-6.5,18.4
	c-1.7,4.9-3.3,9.8-4.6,14.8c-0.7,2.5-1.6,5.9-1.6,8.5c0,6.8-5.7,10.4-12.1,9.9c-3.8-0.3-7.5-1.6-10.9-3.3c-3.7-1.9-7-4.4-9.9-7.3
	c-3.8-3.8-6-8.4-6-13.8c0-3.8,1.4-8.4,2.6-12c1.8-5.4,3.8-10.8,5.9-16.1c0.9-2.2,1.7-4.4,2.6-6.6c-0.7,0.1-1.4,0.2-2.1,0.2
	c-3.2,0-6.2-1.3-8.9-2.9c-3.3-1.9-6-4.7-8.4-7.7c-2.8-3.6-5-7.8-6.6-12.1c-2.1-5.5-2.8-11.4-2.8-17.2c0-6.3,2.5-12.5,5.6-17.9
	c3.7-6.5,8.6-12.4,13.8-17.8c6.1-6.2,12.9-11.8,20.1-16.7c7.8-5.4,16.2-9.9,25-13.4c0.1,0,0.1,0,0.1-0.1c6.1-2.3,12.3-4.2,18.7-5.6
	c6.6-1.5,13.3-2.2,20-2.2c9.7,0,20,1,29.1,4.3c7.2,2.6,14.1,6.5,19.3,12.3C-481.8,308.3-480.5,310.1-479.3,312.1L-479.3,312.1z
	 M-600.6,388.5c2.8-7.1,5.5-14.3,8.1-21.5c2.4-6.5,4.6-13.1,6.7-19.8c-2.3,2.7-4.5,5.6-6.6,8.6c-2.9,4.2-5.6,8.7-7.6,13.5
	c-1.3,3-2.4,6.6-2.4,9.9c0,1.8,0.1,3.9,0.6,5.7C-601.4,386.1-601,387.3-600.6,388.5L-600.6,388.5z M-222.4,359.2
	c-1.3-0.4-2.5-1.1-3.6-2.1c-0.1,0-0.1-0.1-0.2-0.1c-0.6-0.3-1.5-0.6-2.2-0.7c-1.2-0.3-3.5-0.4-4.8-0.4c-2.9,0-6.1,0.5-8.9,0.9
	c-3.6,0.5-7.1,1-10.7,1.6c-2.3,6.4-4.5,12.7-6.8,19.1c-2.9,8.2-5.8,16.5-8.7,24.7c-2.2,6.4-4.4,12.7-6.6,19c0.4-0.5,0.9-1.1,1.3-1.6
	c2.9-3.7,5.8-7.4,8.6-11.1c2.8-3.7,5.5-7.4,8.1-11.2c2.3-3.3,4.7-6.6,7-9.9c0.5-0.7,1-1.4,1.6-2c1.2-1.9,2.5-3.8,3.8-5.6
	c3.2-4.4,6.8-8.6,10.8-12.3C-230.2,364.4-226.5,361.5-222.4,359.2L-222.4,359.2z M-212.8,429.7c-2.1,0.5-4.2,0.7-6.4,0.7
	c-2.2,0-4.4-0.1-6.6-0.4c-0.2,0.6-0.4,1.3-0.5,1.9c-0.4,1.4-0.7,3-0.9,4.5c1.9-0.4,3.8-1,5.6-1.8
	C-218.5,433.2-215.6,431.6-212.8,429.7L-212.8,429.7z M-550.5,366.9c4.6-0.8,9.1-2,13.2-4c5.8-2.7,11.3-6.4,15.4-11.3
	c3.4-4,5.9-8.5,7.1-13.6c1-4.3,1.3-8.8,0.2-13.1c-0.9-3.5-2.6-6.4-5.3-8.8c-2.8-2.4-6.2-3.2-9.9-3.2c-3.3,0-6.6,0.5-9.7,1.4
	c-0.1,0-0.1,0-0.2,0.1c1.8,2.4,3.1,5.2,3.1,8.3c0,2.5-1.1,5.9-1.8,8.3c-1.2,4.1-2.6,8.1-3.9,12.1c-1.8,5.5-3.7,10.9-5.6,16.4
	C-548.8,362-549.7,364.4-550.5,366.9L-550.5,366.9z M-309.3,362.8c-1.7,4.9-3.5,9.8-5.2,14.6c-2.9,8.2-5.8,16.5-8.7,24.7
	c-2.2,6.4-4.4,12.7-6.6,19c0.4-0.5,0.9-1.1,1.3-1.6c2.9-3.7,5.8-7.4,8.6-11.1c2.8-3.7,5.5-7.4,8.1-11.2c2.2-3.2,4.5-6.3,6.7-9.5
	c0.9-2.5,1.9-5,2.8-7.5c1.9-5.2,3.8-10.5,5.6-15.8c-1.2,0.1-2.4,0.1-3.7,0.1C-303.5,364.7-306.5,364.1-309.3,362.8L-309.3,362.8z
	 M-416.3,382c0.5,0.2,0.9,0.5,1.4,0.7c2.6,1.4,5,3.1,7,5.3c0.4,0.4,0.8,0.9,1.1,1.4c0.1-0.6,0.2-1.1,0.2-1.7c0.2-2.9,0.6-8,0.3-11.4
	c-0.7,0.1-1.3,0.4-1.9,0.6c-1.8,0.8-3.5,1.7-5.1,2.9C-414.4,380.4-415.4,381.1-416.3,382z"/>
<path class="st2" d="M-531.8,297.7c10.6,0,19.4,1.3,26.5,3.8c7,2.6,12.4,6,16.1,10.2c3.7,4.2,5.9,9,6.4,14.5
	c0.6,5.4-0.2,11-2.4,16.6c-2.1,5.6-5.6,11.1-10.3,16.6c-4.7,5.4-10.5,10.3-17.4,14.5c-6.9,4.2-14.8,7.6-23.6,10.2
	c-8.9,2.6-18.5,3.8-29,3.8c-0.2,0-0.4-0.1-0.6-0.2c-2.3,7-4.7,13.8-7.1,20.4c-2.4,6.7-4.6,12.8-6.6,18.6c-2,5.7-3.5,10.8-4.8,15.3
	s-1.8,8-1.8,10.5c0,1.6-1.2,2.3-3.7,2.1c-2.4-0.2-5.1-1-8-2.5c-2.9-1.5-5.5-3.4-8-5.9c-2.4-2.4-3.7-5.2-3.7-8.2c0-2,0.7-5.1,2.2-9.5
	c1.5-4.4,3.4-9.6,5.8-15.7c2.4-6.1,5-12.8,7.9-20.1c2.9-7.3,5.7-15,8.6-22.9c2.9-7.9,5.6-15.9,8.1-24c2.5-8.1,4.5-15.8,5.9-23.3
	c-5.4,4.1-10.4,8.7-15.2,13.7c-4.8,5-8.9,10.1-12.5,15.2c-3.5,5.1-6.3,10.1-8.3,14.9c-2,4.8-3,9.1-3,12.9c0,3.2,0.3,5.8,0.9,7.9
	c0.6,2.1,1.2,3.8,1.6,5c0.5,1.3,0.8,2.2,0.8,2.7c0.1,0.6-0.5,0.8-1.7,0.8s-2.9-0.6-4.9-1.8c-2.1-1.2-4.1-3.1-6.2-5.8
	c-2.1-2.6-3.9-6-5.4-10c-1.5-4-2.3-8.9-2.3-14.5c0-4,1.5-8.7,4.6-14c3.1-5.3,7.3-10.7,12.6-16.2c5.4-5.5,11.7-10.7,18.9-15.7
	c7.3-5,15.1-9.2,23.5-12.6c5.7-2.2,11.6-4,17.6-5.3C-544.1,298.4-538,297.7-531.8,297.7L-531.8,297.7z M-561.8,375.7
	c11-0.2,20.3-2.2,27.8-5.8c7.6-3.6,13.6-8,18-13.3c4.5-5.2,7.4-10.9,8.8-16.9c1.4-6,1.5-11.6,0.2-16.8c-1.3-5.1-3.9-9.4-7.8-12.8
	c-3.9-3.4-8.9-5.1-15-5.1c-3.9,0-7.8,0.5-11.8,1.6c-4,1.1-8,2.6-12,4.6c2,1.7,4,3.7,6,5.9c2.1,2.2,3.1,4,3.1,5.5
	c0,0.9-0.5,2.9-1.5,6c-1,3.2-2.3,7.2-3.8,12c-1.6,4.8-3.4,10.2-5.6,16.2C-557.4,362.9-559.6,369.1-561.8,375.7L-561.8,375.7z
	 M-442.2,392.6c1-1.5,1.8-2,2.4-1.7s1.1,1.1,1.4,2.2c0.3,1.1,0.4,2.3,0.4,3.6c-0.1,1.3-0.2,2.2-0.5,2.7c-1.2,2-2.9,4.7-5,8.1
	c-2.1,3.5-4.6,7.3-7.5,11.4c-2.9,4.1-6,8.2-9.4,12.5c-3.4,4.2-7,8.1-10.7,11.5s-7.5,6.3-11.4,8.5c-3.9,2.2-7.8,3.3-11.7,3.3
	c-1.1,0-2.6-0.3-4.5-1c-1.9-0.7-3.7-1.8-5.3-3.4c-1.6-1.6-3.1-3.6-4.2-6.1c-1.2-2.5-1.6-5.6-1.2-9.2c0.1-2.2,1.1-5.8,2.9-10.9
	c1.8-5.1,4.1-11,6.7-17.9c2.6-6.9,5.5-14.5,8.6-22.9c3.1-8.4,6.1-16.9,8.9-25.6c2.8-8.7,5.3-17.4,7.4-26c2.1-8.6,3.5-16.7,4.1-24.3
	c0.1-1.5,0.9-2.3,2.2-2.6c1.3-0.2,3,0,4.9,0.6c2,0.7,4,1.6,6.2,2.9c2.2,1.3,4.2,2.7,6.1,4.2c1.9,1.5,3.4,3.1,4.6,4.7
	c1.2,1.6,1.7,3,1.6,4.2c-0.1,0.9-0.6,2.8-1.6,5.9c-0.9,3.1-2.1,6.9-3.7,11.4c-1.5,4.6-3.3,9.8-5.4,15.7c-2.1,5.9-4.2,11.9-6.4,18.2
	c-2.2,6.3-4.5,12.7-6.8,19.1c-2.3,6.5-4.5,12.7-6.6,18.6c-2.1,5.9-4,11.4-5.8,16.5c-1.8,5.1-3.2,9.3-4.3,12.7
	c-0.4,2.4,0.1,3.7,1.5,3.7c1.2,0,2.9-0.9,4.9-2.6c2.1-1.7,4.3-3.9,6.8-6.7c2.4-2.7,5-5.9,7.8-9.5c2.7-3.6,5.5-7.3,8.1-11
	c2.7-3.7,5.3-7.4,7.8-11C-446.4,398.8-444.2,395.5-442.2,392.6L-442.2,392.6z M-289.9,337.5c4.9,0,8.6,0.8,11.3,2.3
	c2.6,1.5,4.5,3.2,5.5,4.9c1,1.8,1.4,3.4,1.2,4.9s-0.9,2.3-1.8,2.3c-0.9,0-1.5-0.2-1.9-0.6c-0.4-0.4-1.1-0.9-1.9-1.3
	c-0.9-0.4-2-0.9-3.6-1.3c-1.5-0.4-3.8-0.6-6.9-0.6c-2.1,0-5.4,0.3-10,0.9c-4.6,0.6-9.7,1.4-15.5,2.4c-2.6,7.2-5.3,15-8.3,23.4
	c-3,8.4-5.9,16.7-8.7,24.8c-2.8,8.1-5.4,15.7-7.9,22.6c-2.4,7-4.4,12.6-5.9,16.8c-1,3.4-0.6,5.1,1.1,5.1c1.2,0,2.9-0.9,5.1-2.7
	s4.6-4.1,7.2-7c2.6-2.9,5.4-6.3,8.4-10c3-3.7,5.9-7.5,8.8-11.4c2.9-3.8,5.6-7.6,8.2-11.3c2.6-3.7,5-7,7-10c1-1.5,1.8-2,2.4-1.6
	c0.6,0.4,1.1,1.1,1.4,2.2c0.3,1.1,0.4,2.3,0.4,3.6c-0.1,1.3-0.2,2.2-0.5,2.7c-1.2,2-3,4.6-5.2,8c-2.3,3.4-4.9,7-7.9,11.1
	c-3,4-6.2,8.1-9.5,12.4c-3.4,4.2-6.8,8.1-10.3,11.5c-3.5,3.5-6.9,6.4-10.2,8.8c-3.3,2.4-6.3,3.7-9.2,3.9c-0.2,0-0.5,0-0.6,0.1
	c-0.2,0.1-0.4,0.1-0.6,0.1c-1,0-2.7-0.2-5.1-0.6c-2.4-0.4-4.9-1.1-7.5-2.2c-2.6-1.1-4.8-2.6-6.6-4.6c-1.8-2-2.6-4.6-2.4-7.9
	c0.2-2.2,1.3-6.1,3.3-11.6c2-5.6,4.4-12.1,7.2-19.7c2.9-7.6,6-15.9,9.3-24.9c3.4-9,6.5-18.2,9.4-27.5c-3,0.4-5.9,0.7-8.4,0.9
	c-2.6,0.2-4.7,0.4-6.4,0.4c-3.5,0-6.4-1.1-8.7-3.3c-2.3-2.2-3.9-4.6-4.9-7.1c-1-2.6-1.5-4.9-1.5-7.1c0.1-2.2,0.7-3.3,1.9-3.3
	c0.5,0,1.2,0.3,2,0.8c0.9,0.6,2,1.2,3.6,1.9c1.5,0.7,3.5,1.4,5.9,1.9c2.4,0.6,5.3,0.8,8.9,0.8c2.3,0,4.5,0,6.4-0.1
	c2-0.1,3.8-0.1,5.7-0.1c1.7-6.2,3.1-12.2,4.3-17.9c1.2-5.7,2-11.2,2.5-16.3c0.1-1.5,0.9-2.3,2.2-2.6c1.3-0.2,3-0.1,4.9,0.6
	c2,0.6,4,1.6,6.2,2.8c2.2,1.3,4.2,2.7,6.1,4.2s3.4,3.1,4.6,4.7c1.2,1.6,1.7,3,1.6,4.2c-0.1,0.9-0.6,2.9-1.6,6
	c-0.9,3.2-2.2,7.1-3.9,11.7c3.1-0.4,6-0.7,9-0.9C-297.2,337.6-293.8,337.5-289.9,337.5L-289.9,337.5z M-235,337.5
	c4.9,0,8.6,0.8,11.3,2.3c2.6,1.5,4.5,3.2,5.5,4.9c1,1.8,1.4,3.4,1.2,4.9s-0.9,2.3-1.8,2.3c-0.9,0-1.5-0.2-1.9-0.6
	c-0.4-0.4-1.1-0.9-1.9-1.3c-0.9-0.4-2-0.9-3.6-1.3c-1.5-0.4-3.8-0.6-6.9-0.6c-2.1,0-5.4,0.3-10,0.9c-4.6,0.6-9.7,1.4-15.5,2.4
	c-2.6,7.2-5.3,15-8.3,23.4c-3,8.4-5.9,16.7-8.7,24.8c-2.8,8.1-5.4,15.7-7.9,22.6c-2.4,7-4.4,12.6-5.9,16.8c-1,3.4-0.6,5.1,1.1,5.1
	c1.2,0,2.9-0.9,5.1-2.7c2.2-1.8,4.6-4.1,7.2-7c2.6-2.9,5.4-6.3,8.4-10c3-3.7,5.9-7.5,8.8-11.4c2.9-3.8,5.6-7.6,8.2-11.3
	c2.6-3.7,5-7,7-10c1-1.5,1.8-2,2.4-1.6c0.6,0.4,1.1,1.1,1.4,2.2s0.4,2.3,0.4,3.6c-0.1,1.3-0.2,2.2-0.5,2.7c-1.2,2-3,4.6-5.2,8
	c-2.3,3.4-4.9,7-7.9,11.1c-3,4-6.2,8.1-9.5,12.4c-3.4,4.2-6.8,8.1-10.3,11.5c-3.5,3.5-6.9,6.4-10.2,8.8c-3.3,2.4-6.3,3.7-9.2,3.9
	c-0.2,0-0.5,0-0.6,0.1c-0.2,0.1-0.4,0.1-0.6,0.1c-1,0-2.7-0.2-5.1-0.6c-2.4-0.4-4.9-1.1-7.5-2.2c-2.6-1.1-4.8-2.6-6.6-4.6
	c-1.8-2-2.6-4.6-2.4-7.9c0.2-2.2,1.3-6.1,3.3-11.6c2-5.6,4.4-12.1,7.2-19.7c2.9-7.6,6-15.9,9.3-24.9c3.4-9,6.5-18.2,9.4-27.5
	c-3,0.4-5.9,0.7-8.4,0.9c-2.6,0.2-4.7,0.4-6.4,0.4c-3.5,0-6.4-1.1-8.7-3.3c-2.3-2.2-3.9-4.6-4.9-7.1c-1-2.6-1.5-4.9-1.5-7.1
	c0.1-2.2,0.7-3.3,1.9-3.3c0.5,0,1.2,0.3,2,0.8c0.9,0.6,2,1.2,3.6,1.9c1.5,0.7,3.5,1.4,5.9,1.9c2.4,0.6,5.3,0.8,8.9,0.8
	c2.3,0,4.5,0,6.4-0.1c2-0.1,3.8-0.1,5.7-0.1c1.7-6.2,3.1-12.2,4.3-17.9c1.2-5.7,2-11.2,2.5-16.3c0.1-1.5,0.9-2.3,2.2-2.6
	c1.3-0.2,3-0.1,4.9,0.6c2,0.6,4,1.6,6.2,2.8c2.2,1.3,4.2,2.7,6.1,4.2c1.9,1.5,3.4,3.1,4.6,4.7c1.2,1.6,1.7,3,1.6,4.2
	c-0.1,0.9-0.6,2.9-1.6,6c-0.9,3.2-2.2,7.1-3.9,11.7c3.1-0.4,6-0.7,9-0.9C-242.3,337.6-238.9,337.5-235,337.5L-235,337.5z
	 M-163.4,391.3c0.9-1.1,1.6-1.5,2.2-1.2c0.6,0.3,1.1,0.9,1.4,1.7c0.3,0.9,0.5,1.8,0.6,2.7c0.1,1,0,1.6-0.3,2
	c-1.3,1.8-3.4,4.5-6.1,8.1c-2.7,3.6-6,7.6-9.7,11.9c-3.7,4.3-7.8,8.7-12.3,13.2c-4.5,4.5-9,8.5-13.7,12.3s-9.4,6.7-14.1,9.1
	c-4.7,2.3-9.1,3.5-13.3,3.5c-3.1,0-6.3-0.8-9.6-2.5c-3.4-1.6-6.4-3.7-9.2-6.2c-2.8-2.5-5.1-5.2-6.9-8c-1.8-2.8-2.5-5.3-2.3-7.5
	c0.5-5.5,1.6-11,3.4-16.5c1.8-5.5,4-10.7,6.6-15.7c2.6-4.9,5.5-9.6,8.7-13.9c3.2-4.3,6.4-8.1,9.8-11.2c3.4-3.1,6.7-5.6,10-7.4
	c3.3-1.8,6.3-2.7,9-2.7c3.4,0,6.7,0.9,9.9,2.7c3.2,1.8,5.9,4.1,8.1,6.9c2.3,2.7,4,5.7,5.3,8.9c1.3,3.2,1.9,6,1.7,8.6
	c-0.2,2.6-1.4,5.7-3.6,9.4c-2.1,3.7-4.9,7.3-8.1,10.6c-3.3,3.4-7,6.3-11,8.7c-4,2.4-8.1,3.7-12.3,3.7c-2.4,0-4.6-0.2-6.5-0.5
	c-1.9-0.3-3.6-0.8-5.2-1.4c-1.2,3.3-2.2,6.4-2.9,9.2c-0.7,2.9-1.1,5.4-1.2,7.5c-0.1,2.1,0.3,3.8,1.1,5.1c0.8,1.3,2,1.9,3.8,1.9
	c3.8,0,7.8-0.9,11.9-2.8c4.2-1.9,8.3-4.4,12.5-7.4c4.2-3.1,8.4-6.5,12.5-10.4c4.1-3.9,8-7.8,11.6-11.8c3.7-4,7-7.8,10.2-11.4
	C-168.4,397.1-165.7,394-163.4,391.3L-163.4,391.3z M-201.8,376.6c-1.3,0-2.9,0.8-4.7,2.4c-1.8,1.6-3.7,3.7-5.7,6.4
	c-2,2.7-4.1,5.8-6.1,9.3c-2.1,3.5-4.1,7.2-6,11c4.8-1.1,8.9-3.2,12.5-6.4c3.6-3.2,6.5-6.4,8.6-9.8c2.1-3.4,3.4-6.3,3.7-9
	C-199.2,378-200,376.6-201.8,376.6L-201.8,376.6z M-95.2,392.4c1-1.5,1.8-2,2.4-1.6c0.6,0.4,1.1,1.1,1.4,2.2
	c0.3,1.1,0.4,2.3,0.4,3.6c-0.1,1.3-0.2,2.1-0.5,2.5c-1.2,1.8-2.9,4.6-4.9,8.2c-2.1,3.7-4.5,7.7-7.2,12c-2.7,4.3-5.7,8.8-8.9,13.4
	c-3.2,4.6-6.4,8.8-9.6,12.6c-3.2,3.8-6.5,7-9.7,9.6c-3.2,2.6-6.3,4-9.1,4.4c-0.1,0-0.3,0-0.5,0.1c-0.2,0.1-0.4,0.1-0.6,0.1
	c-1,0-2.7-0.2-5.1-0.6c-2.4-0.4-4.9-1.1-7.5-2.2c-2.6-1.1-4.8-2.6-6.6-4.6c-1.8-2-2.6-4.6-2.4-7.9s1.3-7.2,3.3-11.7
	c2-4.5,4-9,6.2-13.5c2.2-4.5,4.2-8.7,6-12.6c1.8-3.9,2.8-6.8,2.9-8.6c0.2-2.2-0.3-4.1-1.7-5.8c-1.3-1.6-3.2-3.3-5.7-5
	c-1.7,2.7-3.4,5.1-5,7.3c-1.6,2.2-3,4-3.9,5.3c-0.4,0.6-0.9,0.7-1.5,0.4c-0.6-0.4-1.2-0.9-1.7-1.7c-0.5-0.8-0.8-1.6-1-2.5
	c-0.2-0.9-0.1-1.6,0.3-2.2c1-1.2,2-2.7,3.1-4.5c1.1-1.8,2.4-3.7,3.8-5.8c-2.1-1.5-4.1-3-6.2-4.8c-2.1-1.7-3.9-3.7-5.4-6
	c-1.5-2.3-2.7-4.9-3.5-7.9c-0.8-2.9-1-6.3-0.6-10.3c0.4-4.8,1.9-9.2,4.5-13.2c2.6-4,5.6-7.5,9.1-10.5c3.4-3,6.9-5.3,10.5-7
	c3.6-1.6,6.6-2.5,9.1-2.5c2.7,0,4.9,1.4,6.7,4.1c1.8,2.7,2.3,7.4,1.7,14c-0.5,5.4-1.9,11-4.1,16.8c-2.3,5.8-4.9,11.4-7.8,16.9
	c2.3,1.8,4.9,3.5,7.6,5s5.3,3.1,7.5,4.9c2.3,1.7,4.1,3.7,5.5,5.9s2,4.9,1.7,8.2c-0.1,1.5-0.8,4.1-2.1,7.9c-1.3,3.8-2.7,8-4.4,12.6
	c-1.7,4.6-3.4,9.3-5.1,14.1c-1.8,4.8-3.3,8.9-4.5,12.5c-1,3.4-0.7,5.1,0.9,5.1c1.3,0,3-1,5-3c2-2,4.2-4.6,6.7-7.9
	c2.4-3.2,5-6.9,7.8-11c2.7-4.1,5.5-8.2,8.1-12.5c2.7-4.2,5.3-8.3,7.8-12.2C-99.4,398.7-97.2,395.3-95.2,392.4L-95.2,392.4z
	 M-153.1,353.6c-0.2,3.2,0,6,0.7,8.3c0.7,2.4,1.8,4.5,3.3,6.3c2.7-4.9,5-9.9,7.1-15c2-5.1,3.2-9.9,3.6-14.3c0.4-3.9,0.2-6.5-0.4-7.9
	c-0.6-1.3-1.6-2-2.9-2c-1.1,0-2.3,0.9-3.6,2.6c-1.3,1.7-2.5,3.8-3.6,6.3c-1.1,2.5-2,5.2-2.8,8C-152.5,348.7-153,351.3-153.1,353.6
	L-153.1,353.6z M-353.8,391.5c0.9-1.3,1.6-1.8,2.2-1.5s1,1,1.3,2c0.2,1,0.3,2.1,0.3,3.3c-0.1,1.2-0.3,2-0.6,2.4
	c-2.1,2.8-4.7,6.4-8,10.6c-3.2,4.3-7,8.5-11.3,12.5c-4.3,4.1-9.1,7.8-14.4,11.1c-5.2,3.3-10.9,5.3-16.8,6c-4.3,5.2-8.9,9.6-13.9,13
	c-5,3.4-10.1,5.1-15.4,5.1c-4.4,0-8.3-1-11.6-2.9c-3.4-2-6.2-4.4-8.5-7.3c-2.3-2.9-4-6.1-5.1-9.4c-1.1-3.4-1.5-6.4-1.3-9.2
	c0.1-2.1,0.7-4.4,1.7-7c1-2.6,2.3-5.3,3.8-8.1c1.5-2.8,3.2-5.6,4.9-8.4c1.8-2.8,3.6-5.4,5.4-7.7c1.1-4.6,2.9-9.1,5.5-13.4
	c2.6-4.3,5.6-8,9.1-11.3c3.5-3.2,7.2-5.8,11.1-7.7c3.9-1.9,7.7-2.8,11.3-2.8c4,0,7.6,1,10.6,3.1c3,2.1,5.6,4.7,7.6,7.9
	c2,3.2,3.5,6.7,4.4,10.4s1.2,7.3,0.8,10.6c-0.4,4.6-1.7,10-4,16.1c-2.3,6.1-5.3,12.2-9,18.3c3.5-1.2,7.2-3.1,10.9-5.7
	c3.7-2.6,7.3-5.5,10.8-8.8c3.5-3.3,6.8-6.8,9.9-10.4C-359,398.6-356.2,395-353.8,391.5z M-404.9,368.2c-2.1,0-4.2,0.5-6.4,1.4
	s-4.4,2.1-6.6,3.7s-4.3,3.4-6.3,5.5c-2,2.1-3.8,4.5-5.4,7c1.3,0.1,3,0.5,5,1.2c2,0.7,4,1.5,6,2.6c2,1,3.6,2.3,4.9,3.7
	c1.3,1.4,1.9,2.9,1.7,4.5c-0.1,0.9-0.6,2-1.5,3.6c-0.9,1.5-1.9,3.3-3.2,5.3c-1.3,2-2.7,4.2-4.4,6.5c-1.6,2.3-3.3,4.6-4.9,7
	c3.7,2.8,7.7,4.9,12.1,6.4c2-3.2,3.8-6.6,5.6-10.2c1.8-3.6,3.3-7.1,4.6-10.5c1.3-3.4,2.3-6.6,3.2-9.6c0.9-3,1.4-5.6,1.6-7.8
	c0.6-7.3,0.6-12.5-0.2-15.6C-399.7,369.8-401.7,368.2-404.9,368.2L-404.9,368.2z M-434.5,444.2c2.4,0,4.9-0.8,7.2-2.5
	c2.4-1.6,4.7-3.8,7-6.5c-4.3-1.8-8-4.3-11.2-7.3c-1.3,2.2-2.5,4.3-3.6,6.3c-1,2-1.8,3.8-2.2,5.2c-0.4,1.5-0.5,2.6-0.1,3.5
	C-436.9,443.8-436,444.2-434.5,444.2L-434.5,444.2z"/>
<path class="st0" d="M-920,68.3V74c0,4.1-3.3,7.3-7.3,7.3h-6.5h-7.8h-7.8h-6.4c-4,0-7.3-3.2-7.3-7.3v-5.7v-7.1v-8.7V40.1v-8.8v-4.2
	v-6.5c0-4.1,3.3-7.3,7.3-7.3h6.4h7.8h7.8h6.5c4,0,7.3,3.2,7.3,7.3v6.5v4.2h-13.7v-4.2h-7.8h-7.8v4.2v8.8v12.4v8.7v7.1h7.8h7.8v-7.1
	v-8.7h-7.8V40.1h7.8h10.4c1.8,0,3.3,1.5,3.3,3.3v9.1v8.7V68.3z M-885.8,13.5h-15.6h-13.7v13.8v4.2v8.8v12.4v8.7v7.1v13h13.7v-13
	v-7.1v-8.7h15.6v8.7v7.1v13h13.7v-13v-7.1v-8c0-1.2-0.6-2.3-1.6-2.9l-2.6-1.5l-4.2-2.5l4.2-2.4l2.6-1.5c1-0.6,1.6-1.7,1.6-2.9v-8.3
	v-4.2v-6.5c0-4-3.2-7.3-7.2-7.3L-885.8,13.5L-885.8,13.5z M-885.8,31.6v8.8h-15.6v-8.8v-4.2h15.6V31.6z M-824.3,68.3v13h-13.7v-13
	v-7.1v-8.7h-15.6v8.7v7.1v13h-13.7v-13v-7.1v-8.7V40.1v-8.8v-4.2v-6.5c0-4.1,3.2-7.3,7.3-7.3h6.4h15.6h6.5c4,0,7.3,3.2,7.3,7.3v6.5
	v4.2v8.8v12.4v8.7V68.3z M-838.1,40.1v-8.8v-4.2h-15.6v4.2v8.8H-838.1z M-852.6,4.8l8.3,8.3l12-12l-8.3-8.3l-3.4,3.4L-852.6,4.8z
	 M-776.5,43.4v5.8c0,1.8-1.5,3.3-3.3,3.3h-10.4h-15.6v8.7v7.1v13h-13.7v-13v-7.1v-8.7V40.1v-8.8v-4.2V13.3h13.7h15.6h10.4
	c1.8,0,3.3,1.5,3.3,3.3v7.2c0,1.8-1.5,3.3-3.3,3.3h-10.4h-15.6v4.2v8.8h15.6h10.4C-778,40.1-776.5,41.6-776.5,43.4L-776.5,43.4z
	 M-757.8,81.3h-13.8V59.6V35V13.3h13.8V35v24.6V81.3z M-710,68.3V74c0,4.1-3.3,7.3-7.3,7.3h-6.5h-15.6h-6.4c-4,0-7.3-3.2-7.3-7.3
	v-5.7v-7.1v-8.7V40.1v-8.8v-4.2v-6.5c0-4.1,3.3-7.3,7.3-7.3h6.4h15.6h6.5c4,0,7.3,3.2,7.3,7.3v6.5v4.2h-13.7v-4.2h-15.6v4.2v8.8
	v12.4v8.7v7.1h15.6v-7.1h13.7V68.3z M-662.3,68.3v13H-676v-13v-7.1v-8.7h-15.6v8.7v7.1v13h-13.7v-13v-7.1v-8.7V40.1v-8.8v-4.2v-6.5
	c0-4.1,3.2-7.3,7.3-7.3h6.4h15.6h6.5c4,0,7.3,3.2,7.3,7.3v6.5v4.2v8.8v12.4v8.7V68.3z M-676,40.1v-8.8v-4.2h-15.6v4.2v8.8H-676z
	 M-600.7,13.5h-15.6h-13.7v13.8v4.2v8.8v12.4v8.7v7.1v13h13.7v-13v-7.1v-8.7h15.6v8.7v7.1v13h13.7v-13v-7.1v-8
	c0-1.2-0.6-2.3-1.6-2.9l-2.6-1.5l-4.2-2.5l4.2-2.4l2.6-1.5c1-0.6,1.6-1.7,1.6-2.9v-8.3v-4.2v-6.5c0-4-3.2-7.3-7.2-7.3L-600.7,13.5
	L-600.7,13.5z M-600.7,31.6v8.8h-15.6v-8.8v-4.2h15.6V31.6z M-539.3,68.3v13H-553v-13v-7.1v-8.7h-15.6v8.7v7.1v13h-13.7v-13v-7.1
	v-8.7V40.1v-8.8v-4.2v-6.5c0-4.1,3.2-7.3,7.3-7.3h6.4h15.6h6.5c4,0,7.3,3.2,7.3,7.3v6.5v4.2v8.8v12.4v8.7V68.3z M-553,40.1v-8.8
	v-4.2h-15.6v4.2v8.8H-553z M-567.5,4.8l8.3,8.3l12-12l-8.3-8.3l-3.4,3.4L-567.5,4.8z M-491.4,40.1v5.1c0,4-3.3,7.3-7.3,7.3h-6.5
	h-15.6v8.7v7.1v13h-13.7v-13v-7.1v-8.7V40.1v-8.8v-4.2V13.3h13.7h15.6h6.5c4,0,7.3,3.2,7.3,7.3v6.5v4.2V40.1L-491.4,40.1z
	 M-505.1,40.1v-8.8v-4.2h-15.6v4.2v8.8H-505.1z M-472.7,81.3h-13.8V59.6V35V13.3h13.8V35v24.6V81.3z M-424.9,68.3V74
	c0,4.1-3.3,7.3-7.3,7.3h-6.5h-15.6H-468v-13v-7.1v-8.7V40.1v-8.8v-4.2V13.3h13.7h15.6h6.5c4,0,7.3,3.2,7.3,7.3v6.5v4.2v8.8v12.4v8.7
	V68.3L-424.9,68.3z M-438.7,68.3v-7.1v-8.7V40.1v-8.8v-4.2h-15.6v4.2v8.8v12.4v8.7v7.1H-438.7z M-377.1,68.3v13h-13.7v-13v-7.1v-8.7
	h-15.6v8.7v7.1v13h-13.7v-13v-7.1v-8.7V40.1v-8.8v-4.2v-6.5c0-4.1,3.2-7.3,7.3-7.3h6.4h15.6h6.5c4,0,7.3,3.2,7.3,7.3v6.5v4.2v8.8
	v12.4v8.7V68.3z M-390.9,40.1v-8.8v-4.2h-15.6v4.2v8.8H-390.9z"/>
<g>
	<path class="st3" d="M470.2,88.8c-2-0.6-0.1-0.2-1.9-0.5c-0.1,0-0.6,0-0.9,0.1c-5.7,4.7-17.5,7.2-24.9,10.1
		c-7,2.7-14.7,20.6-18.1,27.1c-6.7,12.7-3.5,8.1-6.3,14.1c-2.4,5.1-5.4,10-7.4,14.7c-2.6,6.2-1.6,6.8-5.6,14c-1.8,3.2-1.9,4-3.3,7.3
		c-1.1,2.7-1.1,4.3-4.1,5.8c-0.8-2.7-0.6-1.4-0.5-4.1c0.1-4.8,6.5-26.3,8-31.3c1.1-3.6,3.3-6.9,4.5-10l8.3-25.9
		c-4.2-1.5-1.9-0.9-5.9,1.1c-4.2,2.2-11.7,5.6-16.2,5.3c-1.5,2.1-6.3,3.8-9.3,5.6l-9.8,4.8c-3.5,1.3-3.5,1.4-6.8,3.2
		c-2.5,1.4-4.1,1.9-6.6,3.3c-1.1,0.6-1.8,1.1-3.2,1.8l-7.9,4.1c-0.2,0.1-0.5,0.2-0.6,0.2l-14.1,6.3c-7,3.7-18.1,8.4-26.4,13.6
		c-1.2,0.8-1.8,1.3-3.2,2.2l-6.6,3.7c-1.6,1-1.9,1.3-3.2,1.9c-1.3,0.6-1.8,0.6-3.3,1.2c-2.1,0.8-1.2,0.5-2.8,1.3l-13.1,7.2
		c-11.4,6.4-23.2,8.2-23.5,17.7c-0.3,9.6,2.3,19.5,2.3,27.9c0,2.3-0.4,4.8-0.3,7.4c0.4,12.5-1.3,22.6-4.3,35.6
		c-4.3,19.1-2,11.9-10.3,31c-12.6,29.2-22.6,34.9-42.6,55.6c-4.1,4.3-7.6,5.1-12.5,9.4l-25,16.9c-4.3,2.6-2.9,0.3-6.6,2.3
		c-2.4,1.4-3.9,3.9-6.4,5.4c-2.8,1.7-3.6,1.3-6.6,3.3l-51.1,28.5c-11,3.8-12,5.9-18.8,8.4c-3.3,3.7-3.2,2.7-5.9,4.8
		c-1.8,1.5-0.6,0.1-2.6,2.4l7.1-1c12.9-4.4,37.1-10.7,47.6-16.7l4.5-1.9c6-1.9,14-6,19.6-7l29.7-12.1c4.4-2.1,0.7-1.4,7.2-3.5
		c0.3-0.1,1.1-0.4,1.4-0.5l13.4-7c0.2-0.1,0.5-0.3,0.7-0.4l17.8-8.2c2.9-1.2,2.6-0.4,6-2.3l69.7-37.7c4.9-2.3,6.9-3.5,11.9-6.4
		l47-22.3c15.6-6.8,30.5-14.9,46.9-24.2c8.4-4.8,14.5-7.8,23-12.1l17.9-8.7c1.3-0.6,1.4-0.9,2.7-1.2l4.4-0.5c1-1,9.5-4.8,11.2-5.4
		c4.2-1.5,1.8-0.8,5.9-3.2c9.5-5.6,25.2-11.5,34.7-16.1c11-5.3,7.2-2.6,12.1-4.4c2.4-0.9,2.6-1.5,5.4-2.5c4.1-1.4,1.8-0.5,5.9-2.7
		l98.7-41.9c3.7-0.9,8.4-1.7,11.8-5.1c0.9,0.1,0.2,0.2,1.8-0.1l10.1-3.5c11.1-4.8,23.7-10.9,35.7-14.3l5.5-1.8
		c17.9-6.9,30.1-9.8,46.9-16l65.7-21c7.7-1.9,15.9-4.4,23.4-6.7l24.2-6.2c5-0.9,7.9-2.2,12.5-3.2c20.8-4.5,52.7-12.1,72.8-14.2
		c30.2-3,27.9-3.7,61.5-4.6l25.8-1.5c-4.9-3.4-19.1-8.8-24.1-9.1c-3.9-0.3-6.8-2.8-10.9-4.2c-14.6-4.8-11.5-2-27-8.1L884,49.1
		c-7.6-2.5-35.5-8.1-41.4-6.9c-3.9,2.4,0.3,0.9-4.4,1.1l-8.7-0.8c-4.3,0.3-17.1,11.9-21.6,15.6c-3.4,2.8-3.1,1.9-5.7,3.3
		c-5.9,3.3-1.3,2.8-7,1.5c14.1-21.8,25.9-20.5,10.3-23.3l-38.8-2.4c-5,0-7.2-0.1-12.5-0.4c-8-0.5-16.6,0.5-25.3,0.4
		c-11.4-0.1-18.2-1.3-23.4,6.8l-32.8,37.2c-3.2,3.8-7.6,7.3-10.8,10.9c0.6-14.3,23.7-39.8,31.5-50.1c-4.1-3.1-5.8-1.6-9.4-1.1
		c-6.2,0.9-22.3,3-26.9,1.1c-2,1.3-5,1-8.3,1.4c-4.2,0.5-4.9,1.6-9,2.1c-3.6,0.4-14.6,1.4-17.4,2.9c-3.9,3-29,6.9-36.3,8.3l-6,1.3
		c-6.6,3.7-32.1,40-36.6,46.9c-3.7,5.6-7.5,11.2-11.2,16.8c-2.4,3.6-10.3,20.4-14.4,13.3c-2.2-3.8,2.6-10.5,4-13
		c3.2-5.8,7.3-12.6,10.1-18.5c5.4-11.6,20.4-33.7,21.6-36.6l0.4-1.8c-4-1.4-1.6-1-6.2,0.5l-36.2,10.6c-4.2,1.5-5.9,2.3-10.4,3
		C494.3,80.5,475.8,90.1,470.2,88.8L470.2,88.8z"/>
	<path class="st4" d="M284.2,369.9c5.2,3.3,11.8,2.6,20.8,3.8l13.6,3.4c4.3,1.4,4.5,0.7,8.3,1.6c2.3,0.6,18.2,7.9,23,8.3
		c2.6,0.2,1.3-0.5,4.1,0.6l34.9,11.4c4.6,1.9,10.3,2.5,15.3,2.9l45.5,1.4c0.9-0.2,1.3-0.3,2.1-0.4l11.8-2.5c1.5-0.4,2.6-0.6,4.2-1.2
		c0.3-0.1,1.8-0.7,2.1-0.8c0.2-0.1,0.5-0.2,0.7-0.4c0.2-0.1,0.5-0.3,0.7-0.4c7-3.8,10.8-4,15.9-8.1c9.6-7.6,11-6,14.7-9.4
		c12.5-11.5,9.1-11.1,29.4-20.8c12.4-5.9,13.3-2.7,14.7-8.4l-1.2-1.5c-7.5-7.5-41-21.5-54-28.7c-11-6-3-3.5-18.9-10.3
		c-2.9-1.2-6.6-3.6-8.9-4.7c-4.4-2-5.3-1.5-9.1-3.6c-13.3-7.6-21.4-14.2-35.5-7.8c-5.6,2.5-9.8,5.1-15.2,7.2
		c-6.8,2.5-10.3,7.1-15.1,8.9l-30.5,15.3c-3.1,1.4-4.5,2.9-7.2,4.2L327,341.9c-2,1.1-5.4,2.9-7.2,3.6l-2,0.7c-1.7,0.6-0.5,0.2-2,0.8
		c-2.6,1.1-0.6-0.2-4.1,1.8c-3.4,2-3.4,3.1-5,4.4c-4.2,3.2,1.7,0-3.2,1.2l-2.8,0.8c-1.4,0.6-2.6,1.2-4,1.8
		c-2.8,1.2-9.8,4.5-11.5,7.5L284.2,369.9L284.2,369.9z"/>
	<path class="st5" d="M461,281.9c7.2,5,9.3,7.3,16.6,8.2c7.4,0.9,23.2,9.4,31.4,12.7c3.3,1.3,4.7,1.2,7.7,2.2
		c7.9,2.9,13.6,7,22.8,8.3c21.8,3.2,12.4,0.9,28.4,0.4c2.5-0.1,5.2,0.7,7.4,0.6c5-0.2,22.9-6.4,26.7-9.7c13-11.3,6.2-3.7,12.8-8.7
		c5.3-3.9,3.4-5.2,12.3-8.1l18.1-10.7c2.9-2.3,3.1-3.3,6.2-5.5c9.8-6.6,14.3,3.8,30.8-22.9c-25.4-18-17-12.5-40.5-23.3
		c-2.7-1.3-5.2-1.5-7.7-2.2c-5.2-1.4-10.2-4.8-15.1-6.2c-8.7-2.6-7.4,0-14.2,2.7c-2.4,1-4.2,1.5-6.7,2.9l-19.7,6.8
		c-6.1,1.3-6.2,0.7-12.8,4.8c-4.9,3-1.8,1.3-6.8,2.4c-5.9,1.2-8.9,5.2-15.2,7.7l-4.1,1.4c-18.3,6.2-11.6,7-23.5,9.7
		c-4.9,1.1-20.6,8.4-26.2,11.6c-3.6,2-14.7,4.7-22.7,10.1C464.1,279.2,463.3,279.6,461,281.9L461,281.9z"/>
	<path class="st6" d="M800.3,139.2c-2.1,0.9-3.7,0.5-6.8,1.3l-27.3,9.3c-3.4,1-3.5,1.4-6.7,2.9c-5,2.2-8,1.3-13.2,4.1
		c1.3-1.1,0.1-0.3,2.3,0.4l-13.9,6.4c-8.3,3.6-27.8,9.7-41.2,15.5c-5,2.2-8.7,3.7-13.5,5.9c-8.7,3.9-34.8,11.2-41.2,18.7
		c9.4,6.1,19.5,8.4,28,10.7c13.3,3.7,34.7,19.6,54,12.2c5.7-2.2,32-20.5,40.2-26.3c3.3-2.3,3.1-1.3,5.8-2.9l11.6-7.7
		c2-1.3,4-2.3,5.8-3.5l16.9-10.4c2.5-1.4,4-3,5.8-4c2-1.1,3.3-1.4,5.9-2.8c11.7-6.4,24.1-5.4,25.1-6c4.8-4.4-1.6-7.8,8.1-13.8
		l35.4-20.3c4.9-3,2.8,1,8-5.9c-6.8-4-11.1-1.4-23.7,0.7c-14.6,2.4-28.8,6.5-43,10.5c-4.5,1.3-5.8,1.6-10.3,3.1
		C808.9,138.4,804.5,140,800.3,139.2L800.3,139.2z"/>
</g>
</svg>
