<?xml version="1.0" encoding="utf-8"?>
<!-- Generator: Adobe Illustrator 27.8.0, SVG Export Plug-In . SVG Version: 6.00 Build 0)  -->
<svg version="1.1" id="Camada_1" xmlns="http://www.w3.org/2000/svg" xmlns:xlink="http://www.w3.org/1999/xlink" x="0px" y="0px"
	 viewBox="0 0 1080 520" style="enable-background:new 0 0 1080 520;" xml:space="preserve">
<style type="text/css">
	.st0{fill:#150035;}
	.st1{fill-rule:evenodd;clip-rule:evenodd;fill:#FFEECC;}
	.st2{fill:#FFFFFF;}
	.st3{fill-rule:evenodd;clip-rule:evenodd;fill:#FFFFFF;}
	.st4{fill-rule:evenodd;clip-rule:evenodd;fill:#FAD129;}
	.st5{fill-rule:evenodd;clip-rule:evenodd;fill:#E82982;}
	.st6{fill-rule:evenodd;clip-rule:evenodd;fill:#1AC2EA;}
</style>
<g>
	<path class="st0" d="M209.2,300.3v18.9c0,13.5-10.9,24.3-24.3,24.3h-21.5h-51.9H65.7v-43.3v-23.7v-28.9v-41.4V177v-14.2v-46h45.8
		h51.9h21.5c13.4,0,24.3,10.8,24.3,24.3v21.7V177v29.2v41.4v28.9V300.3z M163.4,300.3v-23.7v-28.9v-41.4V177v-14.2h-51.9V177v29.2
		v41.4v28.9v23.7H163.4z M271.1,116.8v46h-45.8v-46H271.1z M271.1,300.2v43.4h-45.8v-43.4v-20.7v-31.8v-41.4v-22.6h45.8v22.6v41.4
		v31.8V300.2z M430.4,300.2v22.6c0,11.5-9.2,20.7-20.7,20.7h-25h-51.9v-43.4h51.9v-20.7h-51.9h-25.1c-11.5,0-20.7-9.2-20.7-20.7v-11
		v-41.4v-22.6v-20.7v-25.3c0-11.5,9.2-20.7,20.7-20.7h25.1h51.9h25c11.5,0,20.7,9.2,20.7,20.7v25.3v20.7v22.6v41.4v31.8V300.2
		L430.4,300.2z M384.7,247.7v-41.4v-22.6v-20.7h-51.9v20.7v22.6v41.4H384.7z M492.3,116.8v46h-45.8v-46H492.3z M492.3,300.2v43.4
		h-45.8v-43.4v-20.7v-31.8v-41.4v-22.6h45.8v22.6v41.4v31.8V300.2z M651.6,300.2v43.4h-27.1h-70.7h-25c-11.5,0-20.7-9.2-20.7-20.7
		v-22.6v-20.7v-31.8v-41.4v-22.6v-20.7v-46h45.7v46h70.7v20.7v22.6h-70.7v41.4v31.8v20.7h70.7L651.6,300.2L651.6,300.2z
		 M667.8,212.7v-11.1c0-11.3,9.2-20.7,20.7-20.7h25.1h51.9v-20.7h-51.9v-43.3h51.9h25c11.5,0,20.7,9.2,20.7,20.7v22.5v20.7v31.8
		v41.5v22.5v20.9v46h-45.7h-51.9h-25.1c-11.5,0-20.7-9.2-20.7-20.7v-25.3v-20.9v-22.5L667.8,212.7L667.8,212.7z M713.6,212.7v41.5
		v22.5v20.9h51.9v-20.9v-22.5v-41.5H713.6z M970.8,300.3v43.3H925h-51.9h-34.7c-6.1,0-11-4.9-11-11v-32.2v-23.7v-28.9v-41.4V177
		v-14.2v-46h45.7v46V177v29.2v41.4v28.9v23.7H925H970.8z"/>
	<path class="st1" d="M587.3,348.6c0.2-2,0.4-3.9,0.6-5.9c0.4-5.3,4-9.4,9.3-10.4c3.2-0.6,6.5,0,9.6,1c2.9,1,5.6,2.3,8.2,3.9
		c2.7,1.6,5.3,3.3,7.7,5.3c2.4,1.9,4.6,4.1,6.5,6.6c2.2,3,3.6,6.5,3.3,10.4c0,0.1,0,0.2,0,0.3c-0.3,2.4-1.2,5.2-2,7.6
		c-1.3,4.2-2.6,8.4-4,12.6c-1.9,5.7-3.9,11.4-5.9,17.1c-2.3,6.5-4.6,13.1-6.9,19.6c-2.4,6.9-4.9,13.8-7.3,20.7
		c-2.4,6.7-4.8,13.3-7.1,20c-0.8,2.1-1.5,4.3-2.3,6.4c2.7-3.6,5.4-7.2,8-10.8c2.8-3.9,5.6-7.8,8.3-11.7c2.4-3.5,4.8-6.9,7.1-10.4
		c0.9-1.4,2-2.6,3.3-3.6c1.1-2.4,2.3-4.7,3.6-7c3.1-5.2,6.9-9.9,11.3-14c4.2-3.9,8.9-7.2,14-9.7c5-2.4,10.4-3.9,15.9-3.9
		c5.8,0,11.4,1.5,16.2,4.8c4.3,2.9,7.8,6.6,10.6,11c2.7,4.3,4.6,8.9,5.8,13.8c1.1,4.7,1.6,9.5,1.1,14.2c-0.3,4.1-1.2,8.2-2.4,12.3
		c2.6-2.6,5.2-5.4,7.6-8.2c3-3.5,5.8-7.1,8.4-10.9c0.4-0.6,0.8-1.2,1.3-1.7c0.7-1.9,1.4-3.8,2.1-5.7c2.1-5.6,4.1-11.3,6-17
		c-1.3,0.1-2.6,0.1-4,0.1c-5.8,0-11.1-1.9-15.3-6c-3.1-3-5.6-6.6-7.3-10.6c-1.4-3.5-2.3-7.3-2.2-11.1c0.2-6.2,3.8-11.8,10.5-11.8
		c2.5,0,4.7,0.9,6.7,2.2c0.9,0.6,2,1.1,2.9,1.6c1.4,0.7,3.1,1.1,4.6,1.5c2.4,0.6,5.2,0.7,7.7,0.7c2.2,0,4.3,0,6.5-0.1
		c1.1-4.2,2-8.5,2.9-12.7c1.1-5.5,2-11.1,2.5-16.7c0.5-5.3,4-9.3,9.3-10.3c3.1-0.6,6.3-0.1,9.4,0.8c3,0.9,5.8,2.3,8.5,3.8
		c2.7,1.6,5.3,3.3,7.7,5.3c2.4,1.9,4.6,4.1,6.5,6.6c2.2,3,3.6,6.5,3.3,10.4c0,0.1,0,0.2,0,0.4c-0.3,2.4-1.2,5.3-1.9,7.7
		c-0.1,0.2-0.1,0.5-0.2,0.7c2.9-0.2,5.7-0.2,8.6-0.2c1.3,0,2.6,0,4,0.1c0.7-2.9,1.3-5.7,1.9-8.6c1.1-5.5,2-11.1,2.5-16.7
		c0.5-5.3,4-9.3,9.3-10.3c3.1-0.6,6.3-0.1,9.4,0.8c3,0.9,5.8,2.3,8.5,3.8c2.7,1.6,5.3,3.3,7.7,5.3c2.4,1.9,4.6,4.1,6.5,6.6
		c2.2,3,3.6,6.5,3.3,10.4c0,0.1,0,0.2,0,0.4c-0.3,2.4-1.2,5.3-1.9,7.7c-0.1,0.2-0.1,0.5-0.2,0.7c2.9-0.2,5.7-0.2,8.6-0.2
		c5.6,0,11.5,0.8,16.4,3.6c3.6,2.1,6.9,4.8,9,8.4c2,3.3,3,7.1,2.3,10.9c-0.3,1.8-0.9,3.4-1.8,4.8c0.6,0,1.2-0.1,1.7-0.1
		c5.3,0,10.3,1.5,14.9,4.1c4.3,2.5,8,5.6,11.1,9.4c2.9,3.6,5.3,7.5,7,11.8c1.6,4.1,2.7,8.4,2.5,12.9c0,0.1,0,0.3,0,0.4
		c-0.2,1.7-0.5,3.4-1.1,5c0,0,0,0,0,0c2-2.3,3.9-4.5,5.9-6.8c0.2-0.3,0.3-0.5,0.6-0.8c1-1.2,1.9-2.5,2.7-3.9
		c-0.2-0.2-0.4-0.4-0.7-0.6c-2.9-2.4-5.4-5.2-7.5-8.4c-2.2-3.4-3.8-7.1-4.9-10.9c-1.2-4.5-1.3-9.3-1-14c0.6-6.5,2.6-12.6,6.2-18.1
		c3.2-4.9,6.9-9.3,11.3-13.1c4.1-3.5,8.5-6.6,13.4-8.8c4.1-1.9,8.7-3.4,13.3-3.4c6.1,0,11.1,3.3,14.3,8.3c3.7,5.8,3.8,13.8,3.2,20.5
		c-0.6,7-2.4,13.8-5,20.4c-1.6,4.2-3.4,8.4-5.4,12.5c0.5,0.3,1,0.6,1.4,0.8c3.2,1.8,6.2,3.7,9.1,5.9c3.1,2.4,5.8,5.2,8,8.5
		c2.7,4.2,3.6,9.2,3.2,14.1c-0.3,3.4-1.6,7.4-2.7,10.6c-1.1,3.2-2.2,6.4-3.3,9.6c1.3-2,2.6-4,3.9-6.1c2.8-4.4,5.6-8.8,8.4-13.2
		c2.4-3.8,4.8-7.5,7.3-11.2c3.1-4.7,8.6-7.6,13.9-4.3c2.7,1.7,4.4,4.3,5.3,7.4c0.6,2.1,0.8,4.3,0.7,6.5c-0.1,2.5-0.5,4.9-1.9,7
		c-1.8,2.7-3.4,5.6-5,8.4c-2.6,4.5-5.3,8.9-8,13.3c-3.2,5-6.4,9.9-9.8,14.7c-3.4,4.9-7,9.7-10.9,14.3c-3.5,4.2-7.4,8.2-11.7,11.6
		c-4,3.1-8.5,5.7-13.6,6.5c-0.9,0.2-1.7,0.3-2.6,0.3c-2.2,0-4.6-0.4-6.8-0.7c-3.5-0.5-6.9-1.6-10.2-3c-3.8-1.6-7.1-3.9-10-6.9
		c-3.8-4.1-5.2-9.4-4.8-14.9c0.4-5.3,2.1-10.6,4.2-15.4c2.2-5,4.5-10,6.9-15c1.7-3.6,3.5-7.1,5.1-10.7c0,0,0,0,0,0
		c-1.1,1.4-2.1,2.8-3.2,4.2c-3.5,4.5-7.1,8.9-10.8,13.2c-4.4,5.1-8.9,10-13.7,14.7c-4.9,4.9-10.1,9.6-15.6,13.9
		c-5.2,4.1-10.8,7.8-16.7,10.7c-5.6,2.8-11.7,4.6-18.1,4.6c-4.9,0-9.7-1.4-14.1-3.5c-4.3-2.1-8.3-4.8-11.9-8
		c-3.4-3.1-6.5-6.5-8.9-10.4c-0.2-0.3-0.4-0.6-0.6-0.9c-1.9,2.1-3.9,4.2-5.9,6.3c-3.7,3.7-7.7,7.3-12,10.4c-4.1,3-8.8,5.3-13.9,5.8
		c-0.8,0.2-1.5,0.2-2.3,0.2c-2.2,0-4.6-0.4-6.8-0.7c-3.5-0.5-6.9-1.6-10.2-3c-3.8-1.6-7.1-3.9-10-6.9c-1.7-1.9-3-4-3.8-6.2
		c-0.1,0.1-0.3,0.3-0.4,0.4c-3.7,3.7-7.7,7.3-12,10.4c-4.1,3-8.8,5.3-13.9,5.8c-0.8,0.2-1.6,0.2-2.3,0.2c-2.2,0-4.6-0.4-6.8-0.7
		c-3.5-0.5-6.9-1.6-10.2-3c-3.8-1.6-7.1-3.9-9.9-6.9c-3.8-4.1-5.2-9.4-4.8-14.9c0-0.1,0-0.2,0-0.3c0.1-0.6,0.2-1.3,0.3-1.9
		c-1.1,0.7-2.1,1.4-3.2,2.1c-5.7,3.6-11.8,6-18.3,7.2c-4.3,5-9.2,9.4-14.7,13.2c-6.4,4.4-13.6,7-21.4,7c-5.9,0-11.7-1.3-16.8-4.3
		c-4.5-2.6-8.4-5.9-11.6-10c-1.8-2.3-3.4-4.8-4.7-7.4c-1.7,1.7-3.4,3.4-5.1,5.1c-4.3,4-8.9,7.5-14,10.4c-5.2,2.9-10.8,4.6-16.8,4.6
		c-2.6,0-5.2-0.7-7.7-1.6c-3.3-1.2-6.2-3.1-8.8-5.5c-2.7-2.6-4.8-5.8-6.4-9.2c-2.1-4.4-2.5-9.4-2-14.2c0.3-4.5,2.1-9.8,3.6-14
		c2.4-6.5,4.8-13,7.3-19.5c3.1-8.2,6.2-16.4,9.3-24.7c1.4-3.7,2.7-7.4,4-11.1c-4.5,4.2-9.5,7.9-14.8,11.1
		c-8.6,5.2-17.9,9.1-27.6,11.9c-9.2,2.7-18.7,4-28.3,4.4c-1.9,5.5-3.8,11-5.8,16.4c-2.4,6.6-4.8,13.2-7.1,19.9
		c-1.8,5.3-3.5,10.6-5,16c-0.7,2.7-1.7,6.3-1.7,9.1c0,7.4-6.2,11.2-13,10.7c-4.1-0.3-8.1-1.7-11.8-3.6c-4-2-7.6-4.7-10.7-7.9
		c-4.1-4.1-6.4-9.1-6.4-14.9c0-4.1,1.5-9.1,2.8-13c1.9-5.9,4.1-11.7,6.4-17.4c0.9-2.4,1.8-4.7,2.8-7.1c-0.8,0.1-1.5,0.2-2.3,0.2
		c-3.4,0-6.7-1.4-9.6-3.1c-3.5-2.1-6.5-5.1-9.1-8.3c-3.1-3.9-5.4-8.4-7.1-13c-2.2-5.9-3-12.3-3-18.6c0-6.8,2.7-13.5,6.1-19.3
		c4-7,9.3-13.4,14.9-19.2c6.6-6.7,14-12.7,21.7-18.1c8.5-5.8,17.5-10.7,27-14.5c0.1,0,0.1,0,0.2-0.1c6.6-2.5,13.3-4.5,20.2-6.1
		c7.1-1.6,14.3-2.4,21.6-2.4c10.5,0,21.6,1.1,31.5,4.7c7.8,2.8,15.3,7,20.8,13.3C584.6,344.6,586.1,346.5,587.3,348.6L587.3,348.6z
		 M456.4,431.2c3-7.7,5.9-15.4,8.7-23.2c2.6-7.1,5-14.2,7.3-21.4c-2.5,3-4.9,6-7.1,9.2c-3.2,4.6-6,9.4-8.2,14.6
		c-1.4,3.2-2.6,7.1-2.6,10.7c0,1.9,0.1,4.3,0.6,6.1C455.5,428.6,455.9,429.9,456.4,431.2L456.4,431.2z M864.7,399.5
		c-1.4-0.5-2.7-1.2-3.9-2.3c-0.1,0-0.1-0.1-0.2-0.1c-0.7-0.3-1.6-0.6-2.4-0.8c-1.3-0.4-3.7-0.4-5.1-0.4c-3.1,0-6.6,0.5-9.7,0.9
		c-3.9,0.5-7.7,1.1-11.5,1.7c-2.4,6.9-4.9,13.7-7.3,20.6c-3.2,8.9-6.3,17.8-9.4,26.7c-2.4,6.9-4.8,13.7-7.1,20.6
		c0.5-0.6,0.9-1.1,1.4-1.7c3.2-4,6.3-8,9.3-12c3-4,5.9-8,8.8-12.1c2.5-3.6,5-7.1,7.6-10.7c0.5-0.8,1.1-1.5,1.7-2.2
		c1.3-2,2.7-4.1,4.1-6c3.5-4.7,7.3-9.3,11.7-13.3C856.4,405.1,860.4,402,864.7,399.5L864.7,399.5z M875.1,475.7
		c-2.2,0.5-4.5,0.8-6.9,0.8c-2.4,0-4.7-0.1-7.1-0.4c-0.2,0.7-0.4,1.4-0.6,2.1c-0.4,1.5-0.8,3.2-0.9,4.9c2.1-0.4,4.1-1.1,6.1-2
		C869,479.5,872.1,477.7,875.1,475.7L875.1,475.7z M510.4,407.8c4.9-0.8,9.8-2.2,14.3-4.3c6.2-3,12.2-6.9,16.7-12.2
		c3.7-4.3,6.4-9.2,7.7-14.7c1.1-4.6,1.4-9.5,0.2-14.1c-1-3.8-2.8-6.9-5.8-9.5c-3-2.6-6.7-3.4-10.7-3.4c-3.6,0-7.1,0.5-10.5,1.5
		c-0.1,0-0.2,0-0.2,0.1c1.9,2.6,3.4,5.6,3.4,9c0,2.8-1.1,6.4-2,9c-1.3,4.4-2.8,8.8-4.2,13.1c-1.9,5.9-4,11.8-6.1,17.7
		C512.3,402.5,511.3,405.2,510.4,407.8L510.4,407.8z M771,403.4c-1.9,5.3-3.7,10.5-5.6,15.8c-3.2,8.9-6.3,17.8-9.4,26.7
		c-2.4,6.9-4.8,13.7-7.1,20.6c0.5-0.6,0.9-1.1,1.4-1.7c3.2-4,6.3-8,9.3-12c3-4,5.9-8,8.8-12.1c2.4-3.4,4.8-6.8,7.2-10.3
		c1-2.7,2-5.4,3-8.1c2.1-5.6,4.1-11.3,6-17c-1.3,0.1-2.6,0.1-4,0.1C777.2,405.5,773.9,404.8,771,403.4L771,403.4z M655.4,424.1
		c0.5,0.2,1,0.5,1.5,0.7c2.8,1.5,5.4,3.4,7.5,5.7c0.4,0.5,0.8,1,1.2,1.5c0.1-0.6,0.2-1.2,0.3-1.8c0.3-3.2,0.7-8.6,0.3-12.3
		c-0.7,0.2-1.4,0.4-2.1,0.7c-2,0.8-3.8,1.9-5.6,3.1C657.4,422.4,656.4,423.2,655.4,424.1z"/>
	<path class="st2" d="M530.7,333.1c11.5,0,21,1.4,28.6,4.1c7.6,2.8,13.4,6.4,17.4,11c4,4.5,6.3,9.8,6.9,15.6
		c0.6,5.9-0.3,11.8-2.6,17.9c-2.3,6.1-6,12-11.1,17.9c-5.1,5.9-11.3,11.1-18.8,15.6c-7.4,4.5-16,8.2-25.5,11
		c-9.6,2.8-20,4.1-31.3,4.1c-0.3,0-0.5-0.1-0.6-0.2c-2.5,7.5-5.1,14.9-7.7,22c-2.6,7.2-5,13.9-7.1,20.1c-2.1,6.2-3.8,11.7-5.1,16.5
		c-1.3,4.8-2,8.6-2,11.4c0,1.7-1.3,2.5-4,2.3c-2.6-0.2-5.5-1.1-8.6-2.7c-3.1-1.6-6-3.7-8.6-6.3c-2.6-2.6-4-5.6-4-8.9
		c0-2.1,0.8-5.5,2.4-10.3c1.6-4.7,3.7-10.4,6.2-17c2.6-6.6,5.4-13.8,8.5-21.7c3.1-7.9,6.2-16.2,9.3-24.7c3.1-8.6,6-17.2,8.7-25.9
		c2.7-8.7,4.8-17.1,6.4-25.1c-5.8,4.5-11.3,9.4-16.4,14.8c-5.1,5.4-9.6,10.9-13.4,16.4c-3.8,5.5-6.8,10.9-9,16.1
		c-2.2,5.2-3.3,9.9-3.3,13.9c0,3.4,0.3,6.3,1,8.5s1.2,4.1,1.8,5.4c0.5,1.4,0.8,2.4,0.9,3c0.1,0.6-0.6,0.9-1.9,0.9s-3.1-0.7-5.3-2
		c-2.2-1.3-4.5-3.4-6.7-6.2c-2.2-2.8-4.2-6.4-5.8-10.8c-1.6-4.4-2.5-9.6-2.5-15.6c0-4.4,1.6-9.4,4.9-15.1
		c3.3-5.7,7.8-11.6,13.6-17.5c5.8-5.9,12.6-11.6,20.5-17c7.8-5.4,16.3-9.9,25.4-13.6c6.2-2.4,12.5-4.3,19-5.7
		C517.4,333.9,524,333.1,530.7,333.1L530.7,333.1z M498.3,417.4c11.9-0.3,21.9-2.3,30.1-6.2c8.2-3.9,14.7-8.7,19.5-14.3
		c4.8-5.7,8-11.8,9.5-18.3c1.5-6.5,1.6-12.6,0.2-18.1c-1.4-5.5-4.2-10.1-8.4-13.8c-4.2-3.7-9.6-5.5-16.2-5.5
		c-4.2,0-8.5,0.6-12.8,1.8c-4.3,1.2-8.6,2.8-13,4.9c2.1,1.8,4.3,4,6.5,6.3c2.2,2.4,3.4,4.4,3.4,5.9c0,0.9-0.5,3.1-1.6,6.5
		c-1.1,3.4-2.4,7.7-4.2,13c-1.7,5.2-3.7,11-6,17.5C503,403.5,500.6,410.3,498.3,417.4L498.3,417.4z M627.4,435.6
		c1.1-1.6,1.9-2.2,2.6-1.8c0.7,0.4,1.2,1.2,1.5,2.4c0.3,1.2,0.5,2.5,0.4,3.9c-0.1,1.4-0.2,2.3-0.5,2.9c-1.3,2.1-3.1,5-5.4,8.8
		s-5,7.8-8.1,12.3c-3.1,4.4-6.5,8.9-10.2,13.4c-3.7,4.5-7.5,8.7-11.6,12.5c-4,3.8-8.1,6.8-12.4,9.2c-4.2,2.4-8.4,3.6-12.7,3.6
		c-1.2,0-2.8-0.4-4.8-1.1c-2-0.7-4-1.9-5.7-3.7c-1.8-1.7-3.3-3.9-4.5-6.6c-1.2-2.7-1.7-6-1.3-10c0.1-2.4,1.2-6.3,3.2-11.8
		c2-5.5,4.4-11.9,7.2-19.4c2.8-7.4,5.9-15.7,9.3-24.7c3.4-9,6.6-18.3,9.6-27.7c3-9.4,5.7-18.8,8-28.1c2.3-9.3,3.8-18,4.5-26.2
		c0.1-1.6,0.9-2.5,2.4-2.8c1.4-0.3,3.2,0,5.3,0.7c2.1,0.7,4.4,1.8,6.7,3.2c2.4,1.4,4.6,2.9,6.6,4.5s3.7,3.3,4.9,5
		c1.2,1.7,1.8,3.2,1.7,4.5c-0.1,0.9-0.7,3-1.7,6.3c-1,3.3-2.3,7.4-4,12.4c-1.6,4.9-3.6,10.6-5.8,16.9s-4.5,12.9-6.9,19.7
		c-2.4,6.8-4.8,13.7-7.3,20.7c-2.5,7-4.9,13.7-7.1,20.1c-2.2,6.4-4.3,12.3-6.2,17.8c-1.9,5.5-3.5,10.1-4.6,13.7
		c-0.4,2.6,0.1,4,1.6,4c1.3,0,3.1-0.9,5.3-2.8c2.2-1.8,4.7-4.3,7.3-7.2c2.6-3,5.4-6.4,8.4-10.3c3-3.9,5.9-7.8,8.8-11.9
		c2.9-4,5.7-8,8.4-11.9C622.9,442.3,625.3,438.7,627.4,435.6L627.4,435.6z M791.9,376.1c5.3,0,9.3,0.8,12.2,2.5
		c2.8,1.6,4.8,3.4,5.9,5.3c1.1,1.9,1.5,3.7,1.3,5.3s-0.9,2.5-2,2.5c-0.9,0-1.6-0.2-2.1-0.7c-0.5-0.5-1.1-0.9-2.1-1.4
		c-0.9-0.5-2.2-0.9-3.9-1.4c-1.6-0.5-4.1-0.7-7.4-0.7c-2.2,0-5.8,0.3-10.8,1c-4.9,0.7-10.5,1.5-16.7,2.6c-2.8,7.8-5.8,16.2-9,25.3
		c-3.2,9.1-6.4,18-9.4,26.8c-3,8.8-5.9,16.9-8.5,24.4c-2.6,7.5-4.7,13.6-6.3,18.2c-1.1,3.7-0.7,5.5,1.2,5.5c1.3,0,3.2-1,5.5-2.9
		c2.4-1.9,5-4.5,7.8-7.6c2.8-3.2,5.9-6.8,9.1-10.8c3.2-4,6.4-8.1,9.5-12.3c3.1-4.1,6.1-8.2,8.9-12.3c2.8-4,5.4-7.6,7.6-10.8
		c1.1-1.6,1.9-2.2,2.6-1.8c0.7,0.4,1.2,1.2,1.5,2.4c0.3,1.2,0.5,2.5,0.4,3.9c-0.1,1.4-0.2,2.3-0.5,2.9c-1.3,2.1-3.2,5-5.6,8.6
		c-2.4,3.6-5.3,7.6-8.5,12c-3.2,4.4-6.7,8.8-10.3,13.4c-3.6,4.5-7.3,8.7-11.1,12.5c-3.8,3.8-7.4,6.9-11,9.5c-3.6,2.6-6.9,4-9.9,4.3
		c-0.3,0-0.5,0-0.7,0.1c-0.2,0.1-0.4,0.1-0.7,0.1c-1.1,0-2.9-0.2-5.5-0.6c-2.6-0.4-5.3-1.2-8.1-2.4c-2.8-1.2-5.1-2.8-7.1-4.9
		c-2-2.1-2.8-4.9-2.6-8.5c0.3-2.4,1.4-6.6,3.6-12.6c2.1-6,4.7-13.1,7.8-21.3c3.1-8.2,6.5-17.1,10.1-26.9c3.6-9.8,7-19.6,10.2-29.7
		c-3.3,0.4-6.3,0.7-9.1,1c-2.8,0.3-5.1,0.4-6.9,0.4c-3.8,0-7-1.2-9.4-3.6c-2.4-2.4-4.2-4.9-5.3-7.7c-1.1-2.8-1.6-5.3-1.6-7.7
		c0.1-2.4,0.8-3.6,2.1-3.6c0.5,0,1.3,0.3,2.2,0.9c0.9,0.6,2.2,1.3,3.9,2.1c1.6,0.8,3.8,1.5,6.3,2.1c2.6,0.6,5.8,0.9,9.6,0.9
		c2.5,0,4.8,0,6.9-0.1c2.1-0.1,4.2-0.1,6.1-0.1c1.8-6.7,3.4-13.2,4.6-19.4c1.3-6.2,2.1-12.1,2.7-17.6c0.1-1.6,0.9-2.5,2.4-2.8
		c1.4-0.3,3.2-0.1,5.3,0.6c2.1,0.7,4.4,1.7,6.7,3.1c2.4,1.4,4.6,2.9,6.6,4.5s3.7,3.3,4.9,5c1.2,1.7,1.8,3.2,1.7,4.5
		c-0.1,0.9-0.7,3.1-1.7,6.5c-1,3.4-2.4,7.6-4.3,12.7c3.3-0.4,6.5-0.7,9.7-1C784,376.2,787.7,376.1,791.9,376.1L791.9,376.1z
		 M851.2,376.1c5.3,0,9.3,0.8,12.2,2.5c2.8,1.6,4.8,3.4,5.9,5.3c1.1,1.9,1.5,3.7,1.3,5.3s-0.9,2.5-2,2.5c-0.9,0-1.6-0.2-2.1-0.7
		c-0.5-0.5-1.1-0.9-2.1-1.4c-0.9-0.5-2.2-0.9-3.9-1.4c-1.6-0.5-4.1-0.7-7.4-0.7c-2.2,0-5.8,0.3-10.8,1c-4.9,0.7-10.5,1.5-16.7,2.6
		c-2.8,7.8-5.8,16.2-9,25.3c-3.2,9.1-6.4,18-9.4,26.8c-3,8.8-5.9,16.9-8.5,24.4c-2.6,7.5-4.7,13.6-6.3,18.2
		c-1.1,3.7-0.7,5.5,1.2,5.5c1.3,0,3.2-1,5.5-2.9c2.4-1.9,5-4.5,7.8-7.6c2.8-3.2,5.9-6.8,9.1-10.8c3.2-4,6.4-8.1,9.5-12.3
		c3.1-4.1,6.1-8.2,8.9-12.3c2.8-4,5.4-7.6,7.6-10.8c1.1-1.6,1.9-2.2,2.6-1.8c0.7,0.4,1.2,1.2,1.5,2.4c0.3,1.2,0.5,2.5,0.4,3.9
		c-0.1,1.4-0.2,2.3-0.5,2.9c-1.3,2.1-3.2,5-5.6,8.6c-2.4,3.6-5.3,7.6-8.5,12c-3.2,4.4-6.7,8.8-10.3,13.4c-3.6,4.5-7.3,8.7-11.1,12.5
		c-3.8,3.8-7.4,6.9-11,9.5c-3.6,2.6-6.9,4-9.9,4.3c-0.3,0-0.5,0-0.7,0.1c-0.2,0.1-0.4,0.1-0.7,0.1c-1.1,0-2.9-0.2-5.5-0.6
		c-2.6-0.4-5.3-1.2-8.1-2.4c-2.8-1.2-5.1-2.8-7.1-4.9c-2-2.1-2.8-4.9-2.6-8.5c0.3-2.4,1.4-6.6,3.6-12.6c2.1-6,4.7-13.1,7.8-21.3
		c3.1-8.2,6.5-17.1,10.1-26.9c3.6-9.8,7-19.6,10.2-29.7c-3.3,0.4-6.3,0.7-9.1,1c-2.8,0.3-5.1,0.4-6.9,0.4c-3.8,0-7-1.2-9.4-3.6
		c-2.4-2.4-4.2-4.9-5.3-7.7c-1.1-2.8-1.6-5.3-1.6-7.7c0.1-2.4,0.8-3.6,2.1-3.6c0.5,0,1.3,0.3,2.2,0.9c0.9,0.6,2.2,1.3,3.9,2.1
		c1.6,0.8,3.8,1.5,6.3,2.1c2.6,0.6,5.8,0.9,9.6,0.9c2.5,0,4.8,0,6.9-0.1c2.1-0.1,4.2-0.1,6.1-0.1c1.8-6.7,3.4-13.2,4.6-19.4
		c1.3-6.2,2.1-12.1,2.7-17.6c0.1-1.6,0.9-2.5,2.4-2.8c1.4-0.3,3.2-0.1,5.3,0.6c2.1,0.7,4.4,1.7,6.7,3.1c2.4,1.4,4.6,2.9,6.6,4.5
		s3.7,3.3,4.9,5c1.2,1.7,1.8,3.2,1.7,4.5c-0.1,0.9-0.7,3.1-1.7,6.5c-1,3.4-2.4,7.6-4.3,12.7c3.3-0.4,6.5-0.7,9.7-1
		C843.3,376.2,847,376.1,851.2,376.1L851.2,376.1z M928.5,434.2c0.9-1.2,1.7-1.6,2.4-1.3c0.7,0.3,1.2,1,1.5,1.9
		c0.3,0.9,0.5,1.9,0.6,3c0.1,1.1,0,1.8-0.3,2.2c-1.5,2-3.7,4.9-6.6,8.8c-3,3.9-6.5,8.2-10.5,12.9c-4,4.7-8.4,9.4-13.2,14.2
		c-4.8,4.8-9.8,9.2-14.8,13.3s-10.1,7.3-15.2,9.8c-5.1,2.5-9.9,3.8-14.3,3.8c-3.3,0-6.8-0.9-10.4-2.7c-3.6-1.8-7-4-10-6.7
		c-3-2.7-5.5-5.6-7.4-8.6c-1.9-3-2.7-5.7-2.5-8.1c0.5-5.9,1.7-11.9,3.7-17.8c1.9-5.9,4.3-11.6,7.1-16.9c2.8-5.3,6-10.3,9.4-15
		c3.4-4.7,7-8.7,10.6-12.1c3.6-3.4,7.2-6,10.8-8c3.6-2,6.8-3,9.7-3c3.7,0,7.3,1,10.7,3c3.4,2,6.4,4.5,8.8,7.4c2.4,3,4.4,6.2,5.7,9.6
		c1.4,3.4,2,6.5,1.9,9.3c-0.3,2.8-1.5,6.2-3.9,10.2c-2.3,4-5.2,7.8-8.8,11.5c-3.6,3.6-7.5,6.8-11.9,9.4c-4.4,2.6-8.8,4-13.3,4
		c-2.6,0-5-0.2-7-0.5s-3.9-0.8-5.6-1.5c-1.3,3.6-2.4,6.9-3.2,10c-0.8,3.1-1.2,5.8-1.3,8.1c-0.1,2.3,0.3,4.1,1.2,5.5
		c0.9,1.4,2.2,2.1,4.1,2.1c4.1,0,8.4-1,12.9-3.1c4.5-2,9-4.7,13.5-8c4.5-3.3,9-7.1,13.4-11.3c4.4-4.2,8.6-8.5,12.6-12.8
		c4-4.3,7.6-8.4,11-12.3C923.1,440.5,926,437.1,928.5,434.2L928.5,434.2z M887,418.4c-1.4,0-3.1,0.9-5,2.6c-1.9,1.7-4,4-6.1,6.9
		c-2.2,2.9-4.4,6.3-6.6,10.1c-2.2,3.8-4.4,7.8-6.5,11.9c5.1-1.2,9.7-3.5,13.5-6.9c3.9-3.4,7-7,9.3-10.6c2.3-3.6,3.6-6.9,4-9.7
		C889.8,419.8,889,418.4,887,418.4L887,418.4z M1002.1,435.4c1.1-1.6,1.9-2.2,2.6-1.8c0.7,0.4,1.1,1.2,1.5,2.4
		c0.3,1.2,0.5,2.5,0.4,3.9c-0.1,1.4-0.2,2.3-0.5,2.7c-1.3,2-3.1,4.9-5.3,8.9c-2.2,4-4.8,8.3-7.8,13s-6.2,9.5-9.6,14.4
		c-3.4,4.9-6.9,9.5-10.4,13.6c-3.5,4.1-7,7.6-10.5,10.4c-3.5,2.8-6.8,4.4-9.8,4.7c-0.1,0-0.3,0-0.5,0.1c-0.2,0.1-0.4,0.1-0.7,0.1
		c-1.1,0-2.9-0.2-5.5-0.6c-2.6-0.4-5.3-1.2-8.1-2.4c-2.8-1.2-5.1-2.8-7.1-4.9c-2-2.1-2.8-4.9-2.6-8.5c0.3-3.6,1.5-7.8,3.6-12.7
		c2.1-4.9,4.4-9.8,6.7-14.6c2.4-4.9,4.5-9.4,6.5-13.6c2-4.2,3-7.3,3.2-9.3c0.3-2.4-0.3-4.5-1.8-6.2c-1.4-1.8-3.5-3.6-6.1-5.4
		c-1.8,2.9-3.7,5.5-5.4,7.9c-1.8,2.4-3.2,4.3-4.3,5.7c-0.4,0.7-0.9,0.8-1.6,0.4s-1.3-1-1.8-1.9c-0.5-0.9-0.9-1.7-1.1-2.7
		c-0.2-0.9-0.1-1.7,0.3-2.4c1.1-1.3,2.2-2.9,3.4-4.8c1.2-1.9,2.6-4,4.1-6.2c-2.2-1.6-4.5-3.3-6.7-5.1c-2.2-1.8-4.2-4-5.8-6.5
		c-1.6-2.5-2.9-5.3-3.8-8.5c-0.9-3.2-1.1-6.9-0.7-11.1c0.4-5.1,2-9.9,4.8-14.2c2.8-4.4,6.1-8.1,9.8-11.4c3.7-3.2,7.5-5.7,11.4-7.5
		c3.9-1.8,7.1-2.7,9.8-2.7c2.9,0,5.3,1.5,7.2,4.5c1.9,3,2.5,8,1.9,15.1c-0.5,5.8-2,11.8-4.4,18.1c-2.4,6.3-5.2,12.4-8.4,18.3
		c2.5,2,5.2,3.8,8.2,5.4c3,1.6,5.7,3.4,8.1,5.2c2.4,1.8,4.4,4,5.9,6.3c1.5,2.4,2.1,5.3,1.9,8.9c-0.1,1.6-0.9,4.4-2.3,8.5
		c-1.4,4.1-3,8.6-4.7,13.6c-1.8,5-3.6,10.1-5.5,15.2c-1.9,5.1-3.5,9.6-4.8,13.4c-1.1,3.7-0.7,5.5,1,5.5c1.4,0,3.3-1.1,5.4-3.3
		c2.2-2.2,4.6-5,7.2-8.5c2.6-3.5,5.4-7.4,8.4-11.9c3-4.4,5.9-8.9,8.8-13.4c2.9-4.5,5.7-8.9,8.4-13.1
		C997.6,442.2,1000,438.5,1002.1,435.4L1002.1,435.4z M939.6,393.5c-0.3,3.4,0,6.4,0.8,9c0.8,2.6,2,4.8,3.6,6.8
		c2.9-5.3,5.4-10.7,7.6-16.2c2.2-5.5,3.5-10.7,3.9-15.4c0.4-4.2,0.3-7.1-0.4-8.5c-0.7-1.4-1.7-2.2-3.2-2.2c-1.2,0-2.5,0.9-3.9,2.8
		c-1.4,1.8-2.7,4.1-3.9,6.8c-1.2,2.7-2.2,5.6-3.1,8.6C940.2,388.2,939.7,390.9,939.6,393.5L939.6,393.5z M722.9,434.4
		c0.9-1.4,1.7-2,2.4-1.6c0.7,0.4,1.1,1.1,1.4,2.2s0.4,2.2,0.3,3.6s-0.3,2.2-0.7,2.6c-2.2,3-5.1,6.9-8.6,11.5
		c-3.5,4.6-7.6,9.1-12.3,13.5c-4.7,4.4-9.9,8.4-15.5,12c-5.7,3.6-11.7,5.7-18.2,6.5c-4.6,5.7-9.6,10.3-15,14
		c-5.4,3.7-10.9,5.5-16.6,5.5c-4.7,0-8.9-1.1-12.6-3.2c-3.6-2.1-6.7-4.7-9.2-7.9c-2.5-3.2-4.4-6.6-5.5-10.2c-1.2-3.6-1.6-7-1.4-10
		c0.1-2.2,0.8-4.8,1.9-7.6c1.1-2.8,2.5-5.8,4.1-8.8c1.6-3,3.4-6.1,5.3-9.1c1.9-3,3.9-5.8,5.8-8.3c1.2-5,3.2-9.8,5.9-14.4
		c2.8-4.6,6-8.7,9.8-12.2c3.8-3.5,7.7-6.3,12-8.3c4.2-2,8.3-3.1,12.3-3.1c4.4,0,8.2,1.1,11.5,3.4c3.3,2.2,6,5.1,8.2,8.5
		c2.2,3.4,3.8,7.2,4.7,11.3c1,4.1,1.3,7.9,0.9,11.5c-0.4,5-1.8,10.8-4.4,17.4c-2.5,6.6-5.7,13.2-9.7,19.8c3.8-1.3,7.7-3.4,11.8-6.1
		c4-2.8,7.9-5.9,11.7-9.5c3.8-3.6,7.3-7.3,10.7-11.3C717.3,442.1,720.3,438.2,722.9,434.4z M667.7,409.3c-2.2,0-4.5,0.5-6.9,1.5
		s-4.7,2.3-7.1,4c-2.4,1.6-4.6,3.6-6.8,5.9c-2.2,2.3-4.1,4.8-5.8,7.6c1.5,0.1,3.3,0.6,5.4,1.3c2.2,0.7,4.3,1.6,6.4,2.8
		c2.1,1.1,3.9,2.4,5.2,4c1.4,1.5,2,3.1,1.9,4.8c-0.1,0.9-0.7,2.2-1.6,3.9c-0.9,1.6-2.1,3.6-3.5,5.7c-1.4,2.2-3,4.5-4.7,7
		c-1.8,2.5-3.5,5-5.2,7.5c4,3,8.3,5.3,13,6.9c2.1-3.4,4.1-7.1,6-11c1.9-3.9,3.6-7.7,4.9-11.4c1.4-3.7,2.5-7.2,3.5-10.4
		c0.9-3.2,1.5-6,1.8-8.4c0.7-7.9,0.6-13.5-0.2-16.8C673.3,410.9,671.2,409.3,667.7,409.3L667.7,409.3z M635.7,491.3
		c2.6,0,5.2-0.9,7.8-2.7c2.6-1.8,5.1-4.1,7.6-7c-4.6-2-8.6-4.6-12.1-7.9c-1.4,2.4-2.7,4.6-3.9,6.8c-1.1,2.2-1.9,4.1-2.4,5.6
		c-0.5,1.6-0.5,2.8-0.1,3.8C633.1,490.9,634.1,491.3,635.7,491.3L635.7,491.3z"/>
	<path class="st0" d="M111.5,85.4v6.1c0,4.4-3.5,7.9-7.9,7.9h-7h-8.4h-8.4h-7c-4.3,0-7.9-3.5-7.9-7.9v-6.1v-7.7v-9.3V54.9v-9.5v-4.6
		v-7c0-4.4,3.5-7.9,7.9-7.9h7h8.4h8.4h7c4.3,0,7.9,3.5,7.9,7.9v7v4.6H96.7v-4.6h-8.4h-8.4v4.6v9.5v13.4v9.3v7.7h8.4h8.4v-7.7v-9.3
		h-8.4V54.9h8.4h11.2c2,0,3.6,1.6,3.6,3.6v9.8v9.3V85.4z M148.3,26.2h-16.8h-14.8v14.9v4.5v9.5v13.4V78v7.7v14h14.8v-14V78v-9.4
		h16.8V78v7.7v14h14.8v-14V78v-8.6c0-1.3-0.7-2.5-1.8-3.1l-2.8-1.6l-4.6-2.7l4.6-2.6l2.8-1.6c1.1-0.7,1.8-1.8,1.8-3.1v-9v-4.5v-7.1
		c0-4.3-3.5-7.9-7.8-7.9L148.3,26.2L148.3,26.2z M148.3,45.7v9.5h-16.8v-9.5v-4.5h16.8V45.7z M214.7,85.4v14h-14.8v-14v-7.7v-9.3
		h-16.8v9.3v7.7v14h-14.8v-14v-7.7v-9.3V54.9v-9.5v-4.6v-7c0-4.4,3.5-7.9,7.8-7.9h7h16.8h7c4.3,0,7.9,3.5,7.9,7.9v7v4.6v9.5v13.4
		v9.3V85.4z M199.9,54.9v-9.5v-4.6h-16.8v4.6v9.5H199.9z M184.2,16.8l8.9,8.9l13-13l-8.9-9l-3.7,3.7L184.2,16.8z M266.4,58.5v6.3
		c0,2-1.6,3.6-3.6,3.6h-11.2h-16.8v9.3v7.7v14H220v-14v-7.7v-9.3V54.9v-9.5v-4.6V26h14.8h16.8h11.2c2,0,3.6,1.6,3.6,3.6v7.8
		c0,2-1.6,3.6-3.6,3.6h-11.2h-16.8v4.6v9.5h16.8h11.2C264.8,54.9,266.4,56.5,266.4,58.5L266.4,58.5z M286.6,99.4h-14.9V76V49.4V26
		h14.9v23.4V76V99.4z M338.2,85.4v6.1c0,4.4-3.5,7.9-7.9,7.9h-7h-16.8h-7c-4.3,0-7.9-3.5-7.9-7.9v-6.1v-7.7v-9.3V54.9v-9.5v-4.6v-7
		c0-4.4,3.5-7.9,7.9-7.9h7h16.8h7c4.3,0,7.9,3.5,7.9,7.9v7v4.6h-14.8v-4.6h-16.8v4.6v9.5v13.4v9.3v7.7h16.8v-7.7h14.8V85.4z
		 M389.8,85.4v14h-14.8v-14v-7.7v-9.3h-16.8v9.3v7.7v14h-14.8v-14v-7.7v-9.3V54.9v-9.5v-4.6v-7c0-4.4,3.5-7.9,7.8-7.9h7h16.8h7
		c4.3,0,7.9,3.5,7.9,7.9v7v4.6v9.5v13.4v9.3V85.4z M374.9,54.9v-9.5v-4.6h-16.8v4.6v9.5H374.9z M456.2,26.2h-16.8h-14.8v14.9v4.5
		v9.5v13.4V78v7.7v14h14.8v-14V78v-9.4h16.8V78v7.7v14H471v-14V78v-8.6c0-1.3-0.7-2.5-1.8-3.1l-2.8-1.6l-4.6-2.7l4.6-2.6l2.8-1.6
		c1.1-0.7,1.8-1.8,1.8-3.1v-9v-4.5v-7.1c0-4.3-3.5-7.9-7.8-7.9L456.2,26.2L456.2,26.2z M456.2,45.7v9.5h-16.8v-9.5v-4.5h16.8V45.7z
		 M522.6,85.4v14h-14.8v-14v-7.7v-9.3H491v9.3v7.7v14h-14.8v-14v-7.7v-9.3V54.9v-9.5v-4.6v-7c0-4.4,3.5-7.9,7.8-7.9h7h16.8h7
		c4.3,0,7.9,3.5,7.9,7.9v7v4.6v9.5v13.4v9.3V85.4z M507.8,54.9v-9.5v-4.6H491v4.6v9.5H507.8z M492.1,16.8l8.9,8.9l13-13l-8.9-9
		l-3.7,3.7L492.1,16.8z M574.3,54.9v5.6c0,4.4-3.5,7.9-7.9,7.9h-7h-16.8v9.3v7.7v14h-14.8v-14v-7.7v-9.3V54.9v-9.5v-4.6V26h14.8
		h16.8h7c4.3,0,7.9,3.5,7.9,7.9v7v4.6V54.9L574.3,54.9z M559.5,54.9v-9.5v-4.6h-16.8v4.6v9.5H559.5z M594.4,99.4h-14.9V76V49.4V26
		h14.9v23.4V76V99.4z M646,85.4v6.1c0,4.4-3.5,7.9-7.9,7.9h-7h-16.8h-14.8v-14v-7.7v-9.3V54.9v-9.5v-4.6V26h14.8h16.8h7
		c4.3,0,7.9,3.5,7.9,7.9v7v4.6v9.5v13.4v9.3V85.4L646,85.4z M631.2,85.4v-7.7v-9.3V54.9v-9.5v-4.6h-16.8v4.6v9.5v13.4v9.3v7.7H631.2
		z M697.7,85.4v14h-14.8v-14v-7.7v-9.3H666v9.3v7.7v14h-14.8v-14v-7.7v-9.3V54.9v-9.5v-4.6v-7c0-4.4,3.5-7.9,7.8-7.9h7h16.8h7
		c4.3,0,7.9,3.5,7.9,7.9v7v4.6v9.5v13.4v9.3V85.4z M682.9,54.9v-9.5v-4.6H666v4.6v9.5H682.9z"/>
</g>
<g>
	<path class="st3" d="M768,699.8c-2-0.6-0.1-0.2-1.9-0.5c-0.1,0-0.6,0-0.9,0.1c-5.7,4.7-17.5,7.2-24.9,10.1
		c-7,2.7-14.7,20.6-18.1,27.1c-6.7,12.7-3.5,8.1-6.3,14.1c-2.4,5.1-5.4,10-7.4,14.7c-2.6,6.2-1.6,6.8-5.6,14c-1.8,3.2-1.9,4-3.3,7.3
		c-1.1,2.7-1.1,4.3-4.1,5.8c-0.8-2.7-0.6-1.4-0.5-4.1c0.1-4.8,6.5-26.3,8-31.3c1.1-3.6,3.3-6.9,4.5-10l8.3-25.9
		c-4.2-1.5-1.9-0.9-5.9,1.1c-4.2,2.2-11.7,5.6-16.2,5.3c-1.5,2.1-6.3,3.8-9.3,5.6l-9.8,4.8c-3.5,1.3-3.5,1.4-6.8,3.2
		c-2.5,1.4-4.1,1.9-6.6,3.3c-1.1,0.6-1.8,1.1-3.2,1.8l-7.9,4.1c-0.2,0.1-0.5,0.2-0.6,0.2l-14.1,6.3c-7,3.7-18.1,8.4-26.4,13.6
		c-1.2,0.8-1.8,1.3-3.2,2.2l-6.6,3.7c-1.6,1-1.9,1.3-3.2,1.9c-1.3,0.6-1.8,0.6-3.3,1.2c-2.1,0.8-1.2,0.5-2.8,1.3l-13.1,7.2
		c-11.4,6.4-23.2,8.2-23.5,17.7c-0.3,9.6,2.3,19.5,2.2,27.9c0,2.3-0.4,4.8-0.3,7.4c0.4,12.5-1.3,22.6-4.3,35.6
		c-4.3,19.1-2,11.9-10.3,31c-12.6,29.2-22.6,34.9-42.6,55.6c-4.1,4.3-7.6,5.1-12.5,9.4l-25,16.9c-4.3,2.6-2.9,0.3-6.6,2.3
		c-2.4,1.4-3.9,3.9-6.4,5.4c-2.8,1.7-3.6,1.3-6.6,3.3l-51.1,28.5c-11,3.8-12,5.9-18.8,8.4c-3.3,3.7-3.2,2.7-5.9,4.8
		c-1.8,1.5-0.6,0.1-2.6,2.4l7.1-1c12.9-4.4,37.1-10.7,47.6-16.7l4.5-1.9c6-1.9,14-6,19.6-7l29.7-12.1c4.4-2.1,0.7-1.4,7.2-3.5
		c0.3-0.1,1.1-0.4,1.4-0.5l13.4-7c0.2-0.1,0.5-0.3,0.7-0.4l17.8-8.2c2.9-1.2,2.6-0.4,6-2.3l69.7-37.7c4.9-2.3,6.9-3.5,11.9-6.4
		l47-22.3c15.6-6.8,30.5-14.9,46.9-24.2c8.4-4.8,14.5-7.8,23-12.1l17.9-8.7c1.3-0.6,1.4-0.9,2.7-1.2l4.4-0.5c1-1,9.5-4.8,11.2-5.4
		c4.2-1.5,1.8-0.8,5.9-3.2c9.5-5.6,25.2-11.5,34.7-16.1c11-5.3,7.2-2.6,12.1-4.4c2.4-0.9,2.6-1.5,5.4-2.5c4.1-1.4,1.8-0.5,5.9-2.7
		l98.7-41.9c3.7-0.9,8.4-1.7,11.8-5.1c0.9,0.1,0.2,0.2,1.8-0.1l10.1-3.5c11.1-4.8,23.7-10.9,35.7-14.3l5.5-1.8
		c17.9-6.9,30.1-9.8,46.9-16l65.7-21c7.7-1.9,15.9-4.4,23.4-6.7l24.2-6.2c5-0.9,7.9-2.2,12.5-3.2c20.8-4.5,52.7-12.1,72.8-14.2
		c30.2-3,27.9-3.7,61.5-4.6l25.8-1.5c-4.9-3.4-19.1-8.8-24.1-9.1c-3.9-0.3-6.8-2.8-10.9-4.2c-14.6-4.8-11.5-2-27-8.1l-69.2-15.7
		c-7.6-2.5-35.5-8.1-41.4-6.9c-3.9,2.4,0.3,0.9-4.4,1.1l-8.7-0.8c-4.3,0.3-17.1,11.9-21.6,15.6c-3.4,2.8-3.1,1.9-5.7,3.3
		c-5.9,3.3-1.3,2.8-7,1.5c14.1-21.8,25.9-20.5,10.3-23.3l-38.8-2.4c-5,0-7.2-0.1-12.5-0.4c-8-0.5-16.6,0.5-25.3,0.4
		c-11.4-0.1-18.2-1.3-23.4,6.8l-32.8,37.2c-3.2,3.8-7.6,7.3-10.8,10.9c0.6-14.3,23.7-39.8,31.5-50.1c-4.1-3.1-5.8-1.6-9.4-1.1
		c-6.2,0.9-22.3,3-26.9,1.1c-2,1.3-5,1-8.3,1.4c-4.2,0.5-4.9,1.6-9,2.1c-3.6,0.4-14.6,1.4-17.4,2.9c-3.9,3-29,6.9-36.3,8.3l-6,1.3
		c-6.6,3.7-32.1,40-36.6,46.9c-3.7,5.6-7.5,11.2-11.2,16.8c-2.4,3.6-10.3,20.4-14.4,13.3c-2.2-3.8,2.6-10.5,4-13
		c3.2-5.8,7.3-12.6,10.1-18.5c5.4-11.6,20.4-33.7,21.6-36.6l0.4-1.8c-4-1.4-1.6-1-6.2,0.5l-36.2,10.6c-4.2,1.5-5.9,2.3-10.4,3
		C792.1,691.5,773.6,701.1,768,699.8L768,699.8z"/>
	<path class="st4" d="M582,980.9c5.2,3.3,11.8,2.6,20.8,3.8l13.6,3.4c4.3,1.4,4.5,0.7,8.3,1.6c2.3,0.6,18.2,7.9,23,8.3
		c2.6,0.2,1.3-0.5,4.1,0.6l34.9,11.4c4.6,1.9,10.3,2.5,15.3,2.9l45.5,1.4c0.9-0.2,1.3-0.3,2.1-0.4l11.8-2.5c1.5-0.4,2.6-0.6,4.2-1.2
		c0.3-0.1,1.8-0.7,2.1-0.8c0.2-0.1,0.5-0.2,0.7-0.4s0.5-0.3,0.7-0.4c7-3.8,10.8-4,15.9-8.1c9.6-7.6,11-6,14.7-9.4
		c12.5-11.5,9.1-11.1,29.4-20.8c12.4-5.9,13.3-2.7,14.7-8.4l-1.2-1.5c-7.5-7.5-41-21.5-54-28.7c-11-6-3-3.5-18.9-10.3
		c-2.9-1.2-6.6-3.6-8.9-4.7c-4.4-2-5.3-1.5-9.1-3.6c-13.3-7.6-21.4-14.2-35.5-7.8c-5.6,2.5-9.8,5.1-15.2,7.2
		c-6.8,2.5-10.3,7.1-15.1,8.9l-30.5,15.3c-3.1,1.4-4.5,2.9-7.2,4.2l-23.1,11.9c-2,1.1-5.4,2.9-7.2,3.6l-2,0.7
		c-1.7,0.6-0.5,0.2-2,0.8c-2.6,1.1-0.6-0.2-4.1,1.8c-3.4,2-3.4,3.1-5,4.4c-4.2,3.2,1.7,0-3.2,1.2l-2.8,0.8c-1.4,0.6-2.6,1.2-4,1.8
		c-2.8,1.2-9.8,4.5-11.5,7.5L582,980.9L582,980.9z"/>
	<path class="st5" d="M758.8,892.9c7.2,5,9.3,7.3,16.6,8.2c7.4,0.9,23.2,9.4,31.4,12.7c3.3,1.3,4.7,1.2,7.7,2.2
		c7.9,2.9,13.6,7,22.8,8.3c21.8,3.2,12.4,0.9,28.4,0.4c2.5-0.1,5.2,0.7,7.4,0.6c5-0.2,22.9-6.4,26.7-9.7c13-11.3,6.2-3.7,12.8-8.7
		c5.3-3.9,3.4-5.2,12.3-8.1l18.1-10.7c2.9-2.3,3.1-3.3,6.2-5.5c9.8-6.6,14.3,3.8,30.8-22.9c-25.4-18-17-12.5-40.5-23.3
		c-2.7-1.3-5.2-1.5-7.7-2.2c-5.2-1.4-10.2-4.8-15.1-6.2c-8.7-2.6-7.4,0-14.2,2.7c-2.4,1-4.2,1.5-6.7,2.9l-19.7,6.8
		c-6.1,1.3-6.2,0.7-12.8,4.8c-4.9,3-1.8,1.3-6.8,2.4c-5.9,1.2-8.9,5.2-15.2,7.7l-4.1,1.4c-18.3,6.2-11.6,7-23.5,9.7
		c-4.9,1.1-20.6,8.4-26.2,11.6c-3.6,2-14.7,4.7-22.7,10.1C762,890.2,761.1,890.6,758.8,892.9L758.8,892.9z"/>
	<path class="st6" d="M1098.1,750.2c-2.1,0.9-3.7,0.5-6.8,1.3l-27.3,9.3c-3.4,1-3.5,1.4-6.7,2.9c-5,2.2-8,1.3-13.2,4.1
		c1.3-1.1,0.1-0.3,2.3,0.4l-13.9,6.4c-8.3,3.6-27.8,9.7-41.2,15.5c-5,2.2-8.7,3.7-13.5,5.9c-8.7,3.9-34.8,11.2-41.2,18.7
		c9.4,6.1,19.5,8.4,28,10.7c13.3,3.7,34.7,19.6,54,12.2c5.7-2.2,32-20.5,40.2-26.3c3.3-2.3,3.1-1.3,5.8-2.9l11.6-7.7
		c2-1.3,4-2.3,5.8-3.5l16.9-10.4c2.5-1.4,4-3,5.8-4c2-1.1,3.3-1.4,5.9-2.8c11.7-6.4,24.1-5.4,25.1-6c4.8-4.4-1.6-7.8,8.1-13.8
		l35.4-20.3c4.9-3,2.8,1,8-5.9c-6.8-4-11.1-1.4-23.7,0.7c-14.6,2.4-28.8,6.5-43,10.5c-4.5,1.3-5.8,1.6-10.3,3.1
		C1106.7,749.4,1102.4,751,1098.1,750.2L1098.1,750.2z"/>
</g>
</svg>
